<?xml version="1.0" encoding="UTF-8"?>
<svg xmlns="http://www.w3.org/2000/svg" xmlns:xlink="http://www.w3.org/1999/xlink" id="Layer_2" viewBox="0 0 148 168">
  <defs>
    <style>.cls-1,.cls-2,.cls-3,.cls-4{fill:none;}.cls-2{stroke-width:1.49px;}.cls-2,.cls-3{stroke:#000;}.cls-2,.cls-3,.cls-4{stroke-miterlimit:10;}.cls-5{clip-path:url(#clippath);}.cls-6{fill:#00e0d7;}.cls-7{fill:#010202;}.cls-8{fill:#f3c900;}.cls-9{fill:#fff;}.cls-10{fill:#f5be00;}.cls-11{fill:#ffe700;}.cls-12{fill:#e85662;}.cls-13{fill:#ff9000;}.cls-14{fill:#876300;}.cls-15{fill:#d7d1c1;}.cls-16{fill:#cd5600;}.cls-17{fill:#d9d2c3;}.cls-18{fill:#e25e00;}.cls-19{fill:#e25c00;}.cls-20{fill:#241f20;}.cls-21{fill:#1d1d1b;}.cls-22{clip-path:url(#clippath-1);}.cls-3{stroke-width:2px;}.cls-4{stroke:#811a29;stroke-width:1.05px;}</style>
    <clipPath id="clippath">
      <rect class="cls-1" width="148" height="168"></rect>
    </clipPath>
    <clipPath id="clippath-1">
      <path class="cls-1" d="M92.25,77.79c.67,.95,1.78,1.49,2.94,1.43h.13c.67-.03,1.31-.33,1.74-.83l-.6-4.71c-.49,.02-.99,.03-1.49,.05l-2.72,.07c-.2,1.33-.2,2.67-.02,4m-5.1,.94c.57,.13,1.15,.16,1.73,.1,.72-.07,1.43-.22,2.11-.45l-.37-4.55h-.21c-1.23,.03-2.5,.05-3.79,.06-.09,.56-.16,1.15-.19,1.71-.12,.94-.01,1.9,.32,2.78,.08,.16,.22,.29,.4,.34m-6.78,.37c.48,.06,.97,.07,1.45,.03,1.22-.14,2.42-.44,3.56-.9-.2-.85-.27-1.72-.2-2.59-.12-.65-.26-1.24-.4-1.74-1.47,0-2.96,0-4.49-.01l-.41,.13c-.13,2.13,.03,4.49,.49,5.09m-7.47,.09c1.6,.17,3.21,.19,4.81,.07,.18-.02,.34-.03,.47-.05,.1-1.79,.02-3.58-.23-5.36-.99-.01-2-.03-3.02-.05-.73-.01-1.47-.03-2.2-.04-.12,1.81-.07,3.63,.17,5.43m-6.6-1.19c1.17,.94,2.67,1.36,4.16,1.16h.04c.27-.41,.52-1.93,.08-5.46-1.34-.04-2.69-.09-4.05-.15-.14,.95-.26,1.92-.33,2.71-.07,.52-.08,1.04-.02,1.56,.03,.07,.07,.13,.12,.18m-8.54-4.73c.82-.2,1.65-.33,2.49-.4l.46-.04c.98-.07,1.96-.08,2.94-.04,3.86,.25,7.63,.4,11.29,.47s7.21,.06,10.56,0,6.53-.16,9.46-.32,5.6-.38,7.97-.6,4.42-.51,6.1-.76,3-.5,3.88-.68l.55-.12s-8.53,5.63-5.52,12.62c-.83,.37-1.93,.82-3.31,1.3-1.97,.68-3.98,1.26-6.01,1.73-2.35,.54-5.02,1.05-7.96,1.44-2.94,.36-6.13,.66-9.51,.78l-.64,.03h-.64s-1.28,.03-1.28,.03c-.87,0-1.75,0-2.64-.02-1.78-.03-3.6-.12-5.44-.27-1.88-.15-3.75-.4-5.6-.75-.94-.17-1.88-.4-2.82-.65-.95-.26-1.88-.57-2.79-.93-.93-.37-1.82-.82-2.67-1.35-.88-.53-1.67-1.19-2.35-1.96-.71-.79-1.22-1.73-1.49-2.76l-.08-.39c-.02-.14-.04-.25-.06-.41l-.03-.37v-.41c.01-.54,.12-1.08,.3-1.59,.39-1.01,1.1-1.86,2.03-2.43,.87-.54,1.83-.93,2.83-1.16"></path>
    </clipPath>
  </defs>
  <g id="Layer_1-2">
    <g class="cls-5">
      <g id="Mask_Group_32">
        <g id="Mask_Group_28">
          <g id="Group_1730">
            <g id="Group_1725">
              <g id="Group_1724">
                <path id="Path_2405" class="cls-13" d="M42.18,31c-13.97,10.87-16.5,22.91-16.5,22.91-13.81-4.58-19.19-18.06-19.19-18.06-7.01-12.55,.49-19.47,.49-19.47,3.72-3.73,9.39-4.7,14.14-2.43,6.41,4.58,21.06,17.05,21.06,17.05"></path>
                <path id="Path_2406" class="cls-3" d="M25.68,53.91c-13.81-4.58-19.19-18.06-19.19-18.06-7.01-12.55,.49-19.47,.49-19.47,3.72-3.73,9.39-4.7,14.14-2.43,6.41,4.58,21.06,17.05,21.06,17.05-13.97,10.87-16.5,22.91-16.5,22.91Z"></path>
                <path id="Path_2407" class="cls-13" d="M106.91,24.86c15.43,8.68,19.72,20.2,19.72,20.2,12.98-6.58,16.29-20.71,16.29-20.71,5.06-13.44-3.37-19.18-3.37-19.18-4.23-3.14-9.98-3.26-14.34-.3-5.65,5.49-18.29,19.99-18.29,19.99"></path>
                <path id="Path_2408" class="cls-3" d="M126.63,45.06c12.98-6.58,16.29-20.71,16.29-20.71,5.06-13.44-3.37-19.18-3.37-19.18-4.23-3.14-9.98-3.26-14.34-.3-5.65,5.49-18.29,19.99-18.29,19.99,15.43,8.68,19.72,20.2,19.72,20.2Z"></path>
                <path id="Path_2409" class="cls-9" d="M100.61,85.01c-6.94,1.86-14.07,2.95-21.24,3.26-10.99,.33-23.2-.51-25.88-7.62-2.68-7.11,6.77-8.36,9.49-7.88s18.45,.54,37,.27l.63,11.97Z"></path>
                <path id="Path_2410" class="cls-11" d="M144.19,87.59c2.07,14.86-11.89,25.93-35.57,28-.21,7.89,.75,15.77,2.85,23.38,6.59,25.54-3.54,51.78-8.94,54.16-7.37,3.01-17.61-6.72-16.56-8.83s2.49-8.75,2.28-12.91-11.37-14.78-18.27-13.67l-.12,.02c.7,4.1,1.77,8.13,3.18,12.04,2.43,6.92-17.03,11.82-20.64,6.44-2.51-3.73-6.99-13.97-10.01-27.64-2.16-9.75,4.92-16,11.63-17.76v-.05c.09-4.16,.77-7.8,1.26-12.84-17.03,5.03-32.39-6-36.61-19.17-3.44-10.74,.99-17.69,8.58-19.36l.38-.08-.02-.21c-.97-9.67-1.37-17.03-1.36-22.67,0-2.57,.09-4.78,.24-6.69,.83-10.33,3.64-11.84,5.95-13.22,1.69-.99,3.44-1.88,5.24-2.67,1.73-.77,3.59-1.49,5.56-2.17,17.85-6.18,44.25-8.75,62.16-5.69,1.86,.32,3.62,.69,5.28,1.14,5.02,1.34,9.03,3.25,11.49,5.81,1.04,1.01,1.9,4.34,2.6,8.64,.3,1.84,.57,3.85,.81,5.94,1.25,10.74,1.75,23.37,1.75,23.37,7.98,2.17,15.75,8.59,16.88,16.69m-35.36,10.84s8.65-.6,11.97-5.79c-3.22-1.08-6.14-2.89-8.53-5.3-.59,.33-1.2,.65-1.83,.94-1.85,3.06-2.46,8.21-1.61,10.15m-58.23,3.33c2,.76,4.2-.03,4.05-1.69-.26-2.98-2.78-7.24-12.55-8.04,2.21,7.61,6.63,9.02,8.5,9.73m29.86-13.85c19.43-.62,28.85-6.03,28.85-6.03-.38-2.11,.07-4.29,1.28-6.07,1.17-2.03,2.97-3.62,5.12-4.55-14.71,2.96-43.28,2.49-50.86,1.97s-12.25,1.5-11.75,5.98c.42,3.73,5.34,9.4,27.36,8.7"></path>
                <path id="Path_2411" class="cls-16" d="M74.12,55.66c-.72-5.71-5.93-9.76-11.63-9.04h0c-5.71,.72-9.76,5.93-9.04,11.63,.72,5.71,5.93,9.76,11.63,9.04,5.71-.72,9.76-5.93,9.04-11.63"></path>
                <path id="Path_2412" class="cls-2" d="M62.48,46.62h0c-5.71,.72-9.76,5.93-9.04,11.63,.72,5.71,5.93,9.76,11.63,9.04,5.71-.72,9.76-5.93,9.04-11.63-.72-5.71-5.93-9.76-11.63-9.04Z"></path>
                <path id="Path_2413" class="cls-13" d="M73.05,55.79h0c-.64-5.12-5.31-8.75-10.43-8.11,0,0,0,0,0,0-5.12,.64-8.75,5.31-8.1,10.43,.64,5.12,5.31,8.75,10.43,8.1,5.12-.64,8.75-5.31,8.1-10.43"></path>
                <path id="Path_2414" class="cls-19" d="M54.83,57.36l.26-.03c.73-3.76,3.65-6.72,7.4-7.49,2.71-.52,5.5,.33,7.46,2.27,.76,.68,1.49,1.4,2.17,2.16l.24-.12c-.95-1.88-2.37-3.49-4.11-4.67-5.47-3.72-14.01,1.31-13.43,7.89"></path>
                <path id="Path_2415" class="cls-9" d="M55.48,58.88c3.68-4.79,10.76-6,16.86-3.3-1.31,1.32-12.41,4.29-16.86,3.3"></path>
                <path id="Path_2416" class="cls-6" d="M65.91,54.7c.83,.5,1.45,1.29,1.74,2.21-.87,.25-1.76,.48-2.65,.67-.17-.19-.4-.33-.65-.39-.62-.14-1.25,.2-1.47,.8-1.04,.17-2.05,.3-2.99,.4-.03-.4,0-.8,.1-1.18,.19-.81,.64-1.54,1.27-2.09,1.53-.37,3.1-.51,4.67-.41"></path>
                <path id="Path_2417" class="cls-14" d="M64.34,57.19c.25,.06,.48,.2,.65,.39-.71,.15-1.43,.29-2.13,.4,.22-.6,.85-.94,1.47-.8"></path>
                <path id="Path_2418" class="cls-21" d="M55.46,59.28c-.51,.14-.58-.25-.58-.25,.04-.38,.23-.72,.53-.95,2.77-4.13,8.66-4.87,13.84-3.71,1.09,.25,3.12,.97,3.12,.97l.4,.23-.32,.3c-5.06,2.74-13.75,3.72-16.99,3.42m13.61-4.14l-.15-.03c.25,.37,.45,.77,.61,1.18,.52-.19,1.02-.39,1.49-.61-.64-.21-1.29-.39-1.95-.54m-9.1,2.06c-.09,.39-.12,.79-.1,1.18,.94-.1,1.95-.22,2.99-.39,.7-.12,1.41-.25,2.12-.41,.89-.19,1.79-.41,2.65-.67-.29-.92-.91-1.71-1.73-2.21-1.57-.1-3.14,.04-4.67,.41-.63,.55-1.08,1.28-1.27,2.09m-3.28,.53c-.23,.25-.43,.52-.62,.8h.23c.51,.03,1.11,.02,1.77-.01-.01-.48,.03-.97,.13-1.44,.07-.28,.15-.55,.25-.82-.66,.4-1.25,.9-1.77,1.47"></path>
                <path id="Path_2419" class="cls-7" d="M64.96,55.34s0,0,0,0c-.54-.87-1.69-1.13-2.56-.59-.87,.54-1.13,1.68-.59,2.55,.54,.87,1.69,1.14,2.55,.59s1.14-1.69,.59-2.55"></path>
                <path id="Path_2420" class="cls-9" d="M59.32,55.76s0,0,0,0c.01-.3-.23-.56-.53-.57-.3-.01-.56,.22-.57,.53-.01,.3,.22,.56,.53,.57,.3,.01,.56-.22,.57-.53"></path>
                <path id="Path_2421" class="cls-16" d="M106.78,56.45c.78-5.7-3.21-10.95-8.91-11.73,0,0,0,0,0,0-5.7-.78-10.95,3.21-11.73,8.91-.78,5.7,3.21,10.95,8.91,11.73,5.7,.78,10.95-3.21,11.73-8.91"></path>
                <path id="Path_2422" class="cls-2" d="M97.87,44.72s0,0,0,0c-5.7-.78-10.95,3.21-11.73,8.91-.78,5.7,3.21,10.95,8.91,11.73,5.7,.78,10.95-3.21,11.73-8.91,.78-5.7-3.21-10.95-8.91-11.73Z"></path>
                <path id="Path_2423" class="cls-13" d="M105.71,56.3c.7-5.11-2.88-9.82-7.99-10.52-5.11-.7-9.82,2.88-10.52,7.99-.7,5.11,2.88,9.82,7.99,10.52,5.11,.7,9.82-2.88,10.52-7.99"></path>
                <path id="Path_2424" class="cls-19" d="M87.88,53.12l.26,.04c1.67-3.45,5.26-5.55,9.08-5.33,2.75,.2,5.23,1.73,6.63,4.11,.56,.85,1.07,1.74,1.54,2.65l.26-.06c-.44-2.06-1.39-3.98-2.76-5.57-4.33-5-13.88-2.35-15,4.16"></path>
                <path id="Path_2425" class="cls-9" d="M87.94,54.75c4.79-3.68,11.94-3.02,17.14,1.16-1.61,.94-13.1,.95-17.14-1.16"></path>
                <path id="Path_2426" class="cls-6" d="M99.09,53.41c.67,.7,1.06,1.62,1.1,2.58-.9,.02-1.82,0-2.73-.04-.12-.23-.3-.42-.53-.55-.56-.3-1.26-.13-1.62,.39-1.05-.1-2.06-.23-2.99-.39,.08-.39,.21-.77,.4-1.12,.39-.74,1.01-1.33,1.76-1.7,1.57,.04,3.13,.31,4.62,.81"></path>
                <path id="Path_2427" class="cls-14" d="M96.94,55.41c.23,.12,.41,.31,.53,.55-.73-.04-1.45-.09-2.16-.16,.37-.52,1.07-.69,1.63-.39"></path>
                <path id="Path_2428" class="cls-21" d="M87.81,55.14c-.53,0-.49-.4-.49-.4,.13-.35,.4-.64,.75-.78,3.74-3.28,9.63-2.47,14.33-.02,.98,.52,2.76,1.74,2.76,1.74l.33,.32-.38,.21c-5.6,1.34-14.25,.04-17.3-1.08m14.21-.49l-.13-.07c.14,.42,.23,.86,.28,1.3,.55-.05,1.09-.11,1.6-.2-.56-.37-1.15-.71-1.75-1.03m-9.33-.36c-.19,.35-.32,.72-.4,1.11,.93,.15,1.94,.29,2.99,.39,.71,.07,1.43,.12,2.16,.16,.91,.04,1.83,.06,2.73,.04-.04-.97-.44-1.89-1.1-2.58-1.49-.5-3.05-.78-4.62-.81-.75,.37-1.37,.96-1.77,1.7m-3.3-.34c-.28,.19-.55,.39-.81,.62,.07,.02,.14,.04,.22,.07,.49,.15,1.07,.29,1.72,.44,.11-.47,.28-.93,.5-1.36,.13-.25,.29-.5,.46-.73-.74,.22-1.45,.55-2.09,.97"></path>
                <path id="Path_2429" class="cls-7" d="M98.01,53.78c-.3-.98-1.34-1.53-2.32-1.23,0,0,0,0,0,0-.98,.3-1.53,1.34-1.23,2.32,.3,.98,1.34,1.53,2.32,1.23s1.53-1.34,1.23-2.32"></path>
                <path id="Path_2430" class="cls-9" d="M92.46,52.73c.09-.29-.07-.6-.36-.69,0,0,0,0,0,0-.29-.09-.6,.07-.69,.36-.09,.29,.07,.6,.36,.69,.29,.09,.6-.07,.69-.36"></path>
                <path id="Path_2431" class="cls-18" d="M36.3,33.85C19.04,9.86,7.98,21.6,7.98,21.6c1.74-6.16,8.02-6.41,8.02-6.41,5.96-.62,23.67,16.93,23.67,16.93l-3.38,1.73Z"></path>
                <path id="Path_2432" class="cls-18" d="M113.48,26.77c13.5-26.28,26.18-16.32,26.18-16.32-2.63-5.83-8.89-5.14-8.89-5.14-5.99,.27-20.89,20.26-20.89,20.26l3.59,1.2Z"></path>
                <path id="Path_2433" class="cls-8" d="M106.46,27.39c6.54,2.33,13.85,5.59,16.52,12.48,.36,.97,.64,1.97,.83,2.99,.09-1.06,.02-2.13-.19-3.18-1.7-7.59-9.98-11.69-17.17-12.3"></path>
                <path id="Path_2434" class="cls-10" d="M33.75,37.91c-4.38,2.11-6.61,7.42-5.7,12.1,.17-.84,.28-1.74,.48-2.56,.73-3.63,2.55-6.96,5.22-9.53"></path>
                <path id="Path_2436" class="cls-10" d="M109,100.42v.07s0-.07,0-.07"></path>
                <path id="Path_2437" class="cls-10" d="M141.16,83.74c5.32,10.05-2.22,27.47-32,30.02l.04-5.93c16.35,.93,35.75-8.25,31.96-24.08"></path>
                <path id="Path_2438" class="cls-10" d="M54.45,116.28s.09,1.01,1.35-4.29c-7.03,3.17-24.01,1.34-34.09-11.33,2.97,10.28,17.59,19.45,32.74,15.62"></path>
                <path id="Path_2439" class="cls-10" d="M88.17,165.46c3.56,4.18,4.43,10.91-1.19,21.93,0,0,.77,3.13-2.24-2.35,2.31-4.85,2.49-14.33,2.49-14.33,0,0-6.42-11.69-16.71-12.38,0,0-1.08-3.2-.69-4.4,5.99,1.35,13.23,5.53,18.34,11.53"></path>
                <path id="Path_2440" class="cls-8" d="M67.3,91.36c2.59,2.82,13.03,5.28,24.45,.52-6.01,1.23-18.86,1.8-24.45-.52"></path>
                <path id="Path_2441" class="cls-10" d="M113.04,75.82c-2.9,3.2-1.53,9.19,2.35,11-2.9-2.87-3.82-7.19-2.35-11"></path>
                <path id="Path_2442" class="cls-10" d="M27.54,82.33c3.2-.47,6.58,.1,8.73,2.69,.71,.83,1.33,1.73,1.83,2.7-.12-.82-.37-1.6-.76-2.33-1.86-3.55-6.25-4.92-9.8-3.06"></path>
                <path id="Path_2443" class="cls-17" d="M68.39,73.92c2.06-.04,2.58,3.38,1.67,5.88l.76,.22,.35-6.42-5.02-.19-.52,4.71s.13,.2,.66-.12c-.22-2.39,.67-4.06,2.1-4.09"></path>
                <path id="Path_2444" class="cls-17" d="M75.15,73.57l-3.16-.04s.34,5.94,1.01,6.3c-.28-5.67,2.38-5.61,2.38-5.61l-.23-.65Z"></path>
                <path id="Path_2445" class="cls-17" d="M74.67,73.59h4.07s.02,5.86,.02,5.86c0,0-.03,.27-.69,.06-.18-6.37-3.14-5.2-3.14-5.2l-.26-.72Z"></path>
                <path id="Path_2446" class="cls-17" d="M84.22,73.88h-4.79s.09,5.3,1.02,5.3c-.46-3.62,.81-4.73,2.11-4.81l1.65-.49Z"></path>
                <path id="Path_2447" class="cls-17" d="M82.34,74.05l2.86-.25,.67,4.69h-.54c-.42-3.17-1.59-4.12-2.77-4.13l-.22-.31Z"></path>
                <path id="Path_2448" class="cls-17" d="M89.79,73.84h-3.53s0,4.93,0,4.93c0,0,.04,.06,.62-.2-.53-4.66,1.34-4.15,1.88-4.2l1.03-.52Z"></path>
                <path id="Path_2449" class="cls-17" d="M88.53,74.15l2.32-.57,.36,4.84-.37,.26c-.33-2.91-.87-4.33-2.1-4.31l-.21-.21Z"></path>
                <path id="Path_2450" class="cls-17" d="M94.36,74.24s-.39-.55-.47-.54-2.2,.04-2.2,.04l.22,4.12s.09,.33,.58,.21c-.34-3.74,.91-3.79,1.86-3.82"></path>
                <path id="Path_2451" class="cls-17" d="M93.9,73.76l3.22-.37,.47,5.35-.5-.03c-.44-3.45-1.41-4.52-2.73-4.47l-.45-.48Z"></path>
                <path id="Path_2452" class="cls-15" d="M27,70.51c.23-2.42,.09-4.85-.44-7.22-.06-.23-.12-.46-.19-.67-.18-.69-.52-1.32-1.01-1.85-.21-.22-.5-.34-.8-.33-.04,.04-.08,.07-.12,.11-.08,.08-.16,.15-.23,.22l-.02,.03c-.07,.08-.13,.17-.2,.28s-.14,.22-.2,.34c-.07,.13-.14,.26-.2,.39-.07,.13-.13,.28-.2,.42l-.19,.45c-.03,.09-.07,.17-.1,.26,.11,.08,.21,.17,.29,.27,.17,.2,.32,.41,.44,.65,.28,.55,.52,1.11,.71,1.7,.05,.14,.1,.28,.14,.43,.39,1.2,.77,2.58,1.16,3.81,.16,.51,.32,.99,.48,1.43,.13,.36,.26,.68,.39,.95,.02,.04,.04,.08,.06,.12,.05-.31,.09-.61,.13-.91,.04-.29,.07-.58,.09-.87"></path>
                <path id="Path_2453" class="cls-9" d="M21.61,62.99c.1-.14,.19-.29,.3-.44s.21-.3,.33-.44,.23-.29,.36-.42,.24-.27,.38-.38c.12-.11,.25-.22,.38-.32,.12-.09,.24-.17,.37-.25,.11-.06,.22-.12,.33-.17,.09-.04,.18-.07,.27-.09,.05-.01,.08-.02,.12-.02-.02-.76-.04-1.49-.05-2.21-3.8-.25-7.46-1.56-10.55-3.78-.05,.52-.1,1.07-.13,1.66-.11,2.13-.07,4.27,.12,6.4,.21,2.8,.77,5.57,1.65,8.24,.63,2.02,1.72,3.87,3.19,5.4,.08-.4,.15-.94,.21-1.53,.15-1.4,.24-3.08,.34-4.15,.03-.31,.06-.57,.1-.79,.26-1.63,.67-3.24,1.23-4.8,.2-.57,.48-1.1,.85-1.58,.07-.11,.14-.23,.21-.34m4.94,.07c-.07-1.68-.13-3.47-.15-5.35-.02-1.63,0-3.35,.07-5.12,.53,.56,.86,1.28,.93,2.05v.08c.18,2.82,.26,5.79,.33,7.52,.05,1.15,.08,3.57-.08,5.89-.06,1.08-.2,2.16-.4,3.23-.05,.22-.1,.42-.15,.61l-.02-.24c-.03-.39-.06-.81-.1-1.23,.24-2.42,.09-4.85-.44-7.22,0-.08,0-.16-.01-.24m-1.38-11.33c-.05,1.57-.05,3.09-.02,4.55-3.99-.13-7.84-1.54-10.97-4.03,.03-.14,.06-.26,.1-.38l-.74-.22,.74,.22c.08-.29,.21-.56,.38-.81,.23-.32,.54-.58,.91-.74,.45-.2,.92-.31,1.41-.35,1.27-.06,2.54,.07,3.78,.4,1.49,.36,2.95,.81,4.39,1.35h.02m-.73,8.75c-.02-.76-.04-1.49-.05-2.21-3.8-.25-7.46-1.56-10.56-3.77,.03-.3,.06-.58,.1-.85,.05-.39,.11-.74,.18-1.05,3.16,2.48,7.03,3.88,11.05,4,.01,.38,.02,.76,.04,1.14,.04,1.06,.1,2.07,.16,3.06-.21-.22-.5-.34-.8-.33-.04,0-.08,0-.12,.01m2.67,11.52c-.04,.15-.08,.29-.13,.42-.03-.34-.05-.68-.08-1.01,.04-.29,.07-.58,.09-.87,.03,.42,.06,.83,.1,1.23l.02,.24m-.57-8.92c0,.08,0,.16,.01,.24-.06-.23-.12-.46-.19-.67-.09-2.2-.13-4.21-.14-6.04h0s0-.31,0-.31c-.36,.01-.72,0-1.08,0-.04-1.46-.03-2.98,.02-4.55,.49,.19,.94,.48,1.3,.87-.07,1.77-.09,3.48-.07,5.12,.01,1.88,.07,3.67,.15,5.35m.44,9.34c-.02,.06-.04,.12-.06,.18h0c-.05-.08-.1-.18-.15-.27,.05-.31,.09-.61,.13-.91,.03,.34,.05,.67,.08,1.01m-1.82-15.82c.35,.01,.71,.02,1.07,0,0,1.83,.04,3.84,.14,6.04-.18-.69-.52-1.32-1.01-1.85-.06-.99-.12-2.01-.16-3.06-.02-.37-.03-.75-.04-1.14m-.01-.31c0,.06,0,.1,0,.16-4.01-.12-7.86-1.53-11.01-4.02,.01-.06,.02-.12,.04-.17,3.13,2.49,6.97,3.9,10.97,4.03m0,.16c0,.05,0,.1,0,.15-4.02-.12-7.89-1.53-11.05-4,.01-.06,.02-.11,.04-.16,3.14,2.48,7,3.89,11.01,4.01m1.08,.16c0-.05,0-.1,0-.15-.36,0-.72,0-1.08,0,0-.06,0-.1,0-.16,.36,0,.72,.01,1.08,0v.31s0,0,0,0m0-.15c0,.05,0,.1,0,.15-.36,0-.72,0-1.07,0,0-.05,0-.1,0-.15,.36,.01,.71,.01,1.08,0m9.66,13.09s-2.98,2.77-4.11,3.99c0,0,.8-2.64,1.8-4.96,.81,.22,1.58,.55,2.3,.97"></path>
                <path id="Path_2454" class="cls-9" d="M24.37,60.61s.05-.05,.07-.07v.02c-.08,.08-.16,.15-.23,.22,.05-.06,.1-.12,.16-.17"></path>
                <path id="Path_2455" class="cls-9" d="M24.45,60.56v-.02s.08-.06,.12-.09c-.04,.04-.08,.07-.12,.11"></path>
                <path id="Path_2456" class="cls-20" d="M91.45,40l-2.37-.02c-.57,0-.91-.02-.91-.02,0,0,.31-.11,.87-.28,.28-.08,.61-.18,1.01-.28s.83-.21,1.32-.29l.76-.14,.82-.11c.57-.08,1.17-.12,1.79-.16,.62-.02,1.27-.04,1.93,0,.33,0,.66,.02,.99,.06s.67,.05,1,.1l.99,.14c.33,.06,.65,.13,.98,.19s.64,.14,.95,.23,.62,.15,.92,.26l.88,.28c.28,.1,.56,.21,.82,.31,.53,.2,1.02,.44,1.48,.64,.46,.19,.85,.43,1.21,.61s.66,.37,.9,.52c.49,.3,.77,.49,.77,.49,0,0-.33-.07-.89-.21l-1-.26c-.39-.09-.81-.21-1.29-.33s-.98-.24-1.52-.36l-.83-.19-.87-.19c-.59-.12-1.19-.23-1.81-.34l-.93-.15-.94-.12c-.31-.05-.63-.07-.95-.1s-.63-.06-.94-.09-.62-.06-.93-.07l-.91-.05c-.6,0-1.18-.03-1.73-.05s-1.08-.03-1.56-.03"></path>
                <path id="Path_2457" class="cls-20" d="M5.21,78.89c3.5,1.5,7.73,3.58,7.73,3.58-2.47,.6-5.03,.77-7.56,.52l-.18-4.11Zm.66,.9c.06,1.67,0,2.7,0,2.7,1.64,.01,3.28-.08,4.91-.28-1.38-.53-4.91-2.42-4.91-2.42"></path>
                <path id="Path_2458" class="cls-20" d="M10.4,68.5c2.3,4.09,4.81,9.39,4.81,9.39-2.86-1.27-5.49-3.01-7.78-5.15l2.97-4.24m-2.11,4.1c1.59,1.24,3.26,2.38,5,3.4-.95-1.56-2.98-6.05-2.98-6.05-1.19,1.68-2.02,2.64-2.02,2.64"></path>
                <path id="Path_2459" class="cls-20" d="M107.93,83.41c.82,1.9,1.59,1.83,2.3,.74,.29,.6,.63,1.17,1.01,1.71,.83,1.12,1.8,2.12,2.89,2.98,.99,.78,2.04,1.47,3.14,2.07,.97,.54,1.97,1.01,3,1.41l.7,.27,.68,.24c.44,.16,.88,.28,1.28,.4,.82,.24,1.56,.42,2.21,.56,.64,.16,1.2,.24,1.65,.34l1.39,.22-.37,.04c-.24,.03-.6,.07-1.08,.09-.23,.01-.5,.01-.79,.02s-.61,0-.95,0c-.79-.03-1.58-.1-2.36-.21-.84-.12-1.68-.29-2.5-.51-1.66,1.74-3.75,3.02-6.06,3.71-1.67,.56-3.4,.92-5.15,1.1h-.09s-.11,.01-.11,.01l-.04-.1c-.2-.51-.32-1.04-.35-1.59-.14-2.69,.38-5.37,1.5-7.82-.09,.04-.17,.08-.25,.11-.45,.19-.95,.38-1.47,.57-.52,.2-1.08,.37-1.66,.56s-1.18,.37-1.8,.52-1.25,.3-1.88,.45-1.26,.27-1.89,.39c-.62,.12-1.24,.21-1.84,.3s-1.18,.15-1.73,.22-1.07,.11-1.55,.15l-1.31,.09-1.02,.04c-.56,.02-.88,.02-.88,.02l.23-.05c.15-.03,.36-.08,.64-.13l.99-.21,1.29-.25c.47-.1,.98-.21,1.52-.31s1.11-.22,1.69-.34l1.8-.39c.62-.14,1.23-.29,1.85-.44s1.23-.33,1.83-.49c.3-.09,.59-.19,.89-.27s.58-.17,.87-.26c.56-.18,1.11-.36,1.62-.55,.51-.17,.99-.38,1.42-.55,.42-.16,.79-.33,1.12-.47-.21-.26-.42-.52-.62-.8-.51-.7-.93-1.46-1.28-2.25-.18-.43-.34-.87-.47-1.32m3.83,6.3c-1,2.08-1.5,4.36-1.46,6.67,2.67-.4,5.19-1.43,7.37-3.02-2.09-.96-4.02-2.22-5.74-3.74l-.18,.09"></path>
                <path id="Path_2460" class="cls-20" d="M146.02,87.34c.86,5.78-.74,11.65-4.43,16.18-5.88,7.38-16.91,12.24-31.17,13.76,0,7.17,.96,14.31,2.84,21.23,3.96,15.34,1.72,29.55,.03,36.66-2.41,10.19-6.44,18.09-10.02,19.66l-.04,.02c-.9,.36-1.84,.59-2.81,.67-6.56,.57-13.22-4.99-15.34-8.1-1.05-1.55-1.31-2.87-.77-3.95,1.4-3.84,2.11-7.9,2.09-11.99-.05-.97-1.77-3.85-5.31-6.93-3.17-2.76-6.46-4.56-9.01-4.97,.69,3.25,1.59,6.45,2.71,9.58,.58,1.64,.34,3.47-.65,4.9-2.36,3.67-8.62,5.79-13.43,6.21-2.76,.24-7.71,.17-9.87-3.02-2.89-4.31-7.35-15-10.28-28.27-1.17-4.67-.12-9.62,2.84-13.42,2.29-2.84,5.34-4.97,8.8-6.13,.11-2.28,.38-4.46,.67-6.75,.09-.75,.19-1.52,.28-2.32-15.68,3.24-31.3-5.83-36.24-21.06-1.9-5.92-1.67-11.18,.65-15.21,1.78-3.04,4.67-5.27,8.07-6.21-.18-1.89-.35-3.72-.49-5.48-.07-.16-.13-.32-.19-.48-.48-1.26-.91-2.82-1.34-4.24-.28-.95-.56-1.83-.84-2.48-.09-.23-.2-.46-.32-.67-.02,.04-.04,.09-.06,.13-.04,.1-.09,.18-.13,.25s-.07,.12-.09,.16c-.62,1.58-1.06,3.23-1.31,4.9-.03,.16-.06,.46-.1,.83s-.07,.82-.1,1.3c-.07,.96-.15,2.07-.26,3.03-.06,.57-.15,1.15-.28,1.71-.06,.27-.16,.52-.3,.76-.1,.16-.23,.3-.4,.4-.24,.14-.54,.17-.81,.07-.1-.04-.2-.09-.28-.16h0s0,0,0,0h0c-2.03-1.76-3.51-4.05-4.29-6.62-.93-2.79-1.51-5.69-1.73-8.62-.28-3.08-.24-6.17,.12-9.24v-.05s.5-2.25,.5-2.25c.14-.33,.31-.65,.5-.95,.26-.36,.58-.68,.94-.93,.75-.48,1.61-.76,2.5-.81,1.43-.08,2.87,.07,4.26,.43,1.4,.34,2.77,.75,4.12,1.25,.07-1.67,.25-3.34,.52-4.99,.19-1.19,.48-2.35,.85-3.5,.39-1.26,.98-2.45,1.75-3.51,.42-.57,.92-1.08,1.46-1.53,.53-.42,1.08-.8,1.66-1.13,1.07-.64,2.19-1.27,3.33-1.83,3.78-1.85,7.68-3.45,11.67-4.77,9.36-2.6,18.91-4.4,28.57-5.39,6.23-.56,12.5-.65,18.75-.27,4.34,.15,8.66,.72,12.9,1.69,1.27,.35,2.58,.52,3.84,.85,1.27,.32,2.51,.69,3.72,1.12,2.44,.81,4.74,1.97,6.84,3.45,.26,.2,.51,.37,.77,.6l.38,.33,.19,.16,.16,.15,.31,.3,.16,.15c.08,.08,.16,.17,.24,.26,.24,.3,.46,.63,.63,.97,.29,.58,.53,1.17,.73,1.79,.19,.58,.37,1.14,.52,1.71,.6,2.24,1.05,4.38,1.4,6.45,.17,1.03,.33,2.05,.47,3.04,.05,.31,.12,.93,.12,.93,0,0,1.74,19.06,1.89,22.35,3.9,1.28,7.48,3.38,10.49,6.17,3.42,3.03,5.7,7.15,6.44,11.67M24.54,65.57c.05,.14,.1,.28,.14,.43,.39,1.2,.77,2.58,1.16,3.82,.16,.51,.32,.99,.48,1.43,.13,.35,.26,.67,.39,.94,.02,.04,.04,.08,.06,.12,.05,.1,.1,.19,.15,.27h0c.02-.06,.04-.12,.06-.18,.04-.13,.09-.27,.13-.42,.05-.2,.1-.4,.15-.62,.2-1.07,.34-2.15,.4-3.23,.16-2.32,.13-4.74,.08-5.89-.07-1.73-.15-4.7-.33-7.52v-.09c-.08-.77-.41-1.49-.94-2.05-.36-.38-.81-.68-1.3-.87h-.02c-1.43-.55-2.9-1-4.39-1.36-1.23-.32-2.5-.46-3.78-.4-.49,.03-.96,.15-1.41,.35-.36,.16-.68,.42-.91,.74-.17,.25-.3,.52-.38,.81l-.74-.22,.74,.22c-.03,.11-.07,.24-.1,.38-.01,.05-.02,.12-.04,.17s-.02,.11-.04,.16c-.06,.31-.12,.66-.18,1.05-.04,.27-.07,.55-.1,.85-.05,.52-.1,1.07-.13,1.66-.11,2.13-.07,4.27,.12,6.39,.21,2.8,.77,5.57,1.65,8.24,.63,2.02,1.72,3.87,3.19,5.4,.08-.4,.15-.94,.22-1.52,.15-1.4,.23-3.08,.34-4.15,.03-.31,.06-.57,.1-.79,.26-1.63,.67-3.24,1.23-4.8,.2-.57,.48-1.1,.85-1.58,.07-.11,.14-.23,.21-.34,.1-.14,.19-.29,.3-.44s.21-.3,.33-.44,.23-.29,.36-.42,.24-.27,.38-.38c.12-.11,.25-.22,.38-.32,.12-.09,.24-.17,.37-.25,.11-.06,.22-.12,.33-.17,.09-.04,.18-.07,.27-.09,.05-.01,.08-.02,.12-.02,.04,0,.08-.01,.12-.01-.04,.03-.08,.06-.12,.09-.02,.02-.05,.04-.07,.07-.06,.05-.11,.11-.16,.17l-.03,.03c-.07,.08-.13,.17-.2,.28s-.14,.22-.2,.34c-.07,.13-.14,.26-.2,.39-.07,.13-.13,.28-.19,.43l-.19,.45c-.03,.09-.07,.17-.1,.26,.11,.08,.2,.17,.29,.27,.17,.2,.32,.42,.44,.65,.28,.55,.52,1.11,.71,1.7m119.46,27.69c.28-1.87,.28-3.77,0-5.64-.09-.47-.17-.95-.27-1.42-.14-.46-.25-.92-.4-1.37-.18-.45-.33-.9-.53-1.34-.22-.43-.4-.88-.64-1.29-.95-1.69-2.13-3.24-3.51-4.6-2.78-2.71-6.12-4.77-9.79-6.03-1.79-.63-3.65-1.03-5.53-1.21-1.84-.18-3.69-.06-5.49,.36-1.09,.26-2.14,.67-3.12,1.22-.06,.03-.12,.07-.18,.11l.02,.09-.23,.04c-.42,.26-.83,.55-1.21,.87,.21-1.34,.33-2.24,.33-2.24,1.25-.74,2.61-1.29,4.02-1.61,.85-.19,1.72-.32,2.59-.38-.23-.05-.47-.08-.7-.12-.25-.04-.51-.09-.76-.11l-.77-.09-.76-.07c-.51-.05-1.01-.08-1.49-.1s-.95-.06-1.4-.06c-.44-.03-.87-.02-1.26-.04s-.75,0-1.07-.03-.6-.03-.83-.03-.41-.01-.54-.02h-.19s.71-.14,.71-.14c.23-.04,.5-.09,.82-.13s.67-.11,1.07-.15c.79-.1,1.71-.19,2.71-.24,.5-.02,1.01-.04,1.54-.03h.8s.81,.05,.81,.05c.27,.01,.54,.04,.81,.06s.53,.04,.8,.09l.79,.11,.77,.14c.5,.09,.98,.22,1.44,.33,.45,.13,.89,.25,1.28,.39l.56,.19,.51,.2c.32,.13,.61,.25,.81,.34l.04,.02c.19,.04,.37,.09,.56,.14-.06-1.27-.17-3.38-.34-6.19-.15-2.41-.34-5.33-.64-8.68-.29-3.35-.65-7.12-1.24-11.22-.3-2.04-.65-4.17-1.17-6.33-.25-1.1-.61-2.16-1.08-3.18-.12-.25-.27-.48-.44-.7-.17-.2-.41-.4-.61-.61-.42-.4-.87-.77-1.34-1.11-1.98-1.39-4.16-2.48-6.46-3.24-1.17-.41-2.37-.77-3.6-1.08-1.23-.32-2.48-.59-3.75-.83-5.23-.92-10.53-1.41-15.84-1.47-5.49-.08-10.97,.14-16.43,.66-5.46,.51-10.89,1.31-16.27,2.39-5.21,1.02-10.35,2.42-15.36,4.17-2.39,.84-4.73,1.82-7.01,2.93-1.12,.54-2.18,1.14-3.23,1.76-.52,.3-1.01,.63-1.48,1-.45,.37-.86,.79-1.22,1.26-.68,.93-1.21,1.97-1.56,3.07-.36,1.07-.64,2.16-.83,3.27-.31,1.76-.51,3.53-.61,5.31,1.35,.82,2.23,2.23,2.37,3.81v.13c.19,2.86,.27,5.83,.34,7.55,.11,2.76,.01,5.53-.3,8.27-.11,.9-.31,1.79-.6,2.66-.14,.41-.35,.8-.62,1.14l-.25,.31h-.18c.1,1.1,.18,2.03,.26,2.76l.03,.4c.73-.14,1.47-.23,2.22-.28,1.11-.07,2.23,0,3.33,.19,1.12,.21,2.21,.6,3.21,1.14,.98,.56,1.87,1.28,2.64,2.11,1.39,1.59,2.44,3.43,3.11,5.43,.33,.93,.61,1.88,.84,2.84,.1,.44,.19,.89,.29,1.33,.09,.42,.2,.83,.31,1.24,.03,.1,.06,.2,.09,.29,1.31,.16,2.61,.43,3.88,.8,.93,.28,1.84,.64,2.7,1.09,1.03,.52,1.96,1.22,2.75,2.07,.91,.97,1.52,2.18,1.77,3.49,.08,.36,.1,.73,.06,1.09-.08,.39-.28,.74-.58,1-.61,.49-1.39,.73-2.17,.68-.39,0-.78-.07-1.16-.18-.39-.12-.73-.26-1.1-.4-.75-.29-1.47-.65-2.15-1.07-1.42-.92-2.63-2.13-3.54-3.55-.95-1.5-1.68-3.12-2.15-4.83-.26-.87-.45-1.77-.66-2.65-.22-.89-.48-1.77-.79-2.63-.6-1.78-1.55-3.42-2.78-4.83-.64-.7-1.39-1.29-2.21-1.76-.84-.46-1.74-.79-2.69-.96-1.93-.31-3.9-.22-5.79,.27-1.92,.43-3.71,1.3-5.24,2.53-1.5,1.26-2.65,2.9-3.32,4.74-.65,1.84-.92,3.8-.8,5.75,.11,1.92,.45,3.83,1.04,5.66,.55,1.8,1.28,3.55,2.19,5.19,3.32,5.95,8.53,10.63,14.82,13.27,4.43,1.86,9.25,2.56,14.03,2.05,1.33-.14,2.65-.38,3.95-.7l.3-.08c.01-.07,.02-.14,.03-.21,.09-.55,.19-1.08,.3-1.57s.25-.97,.36-1.4c.14-.43,.25-.83,.38-1.17s.25-.65,.35-.9,.2-.44,.26-.58,.1-.21,.1-.21l-.05,.81c-.03,.52-.1,1.25-.17,2.14-.17,1.77-.38,4.12-.61,6.48s-.45,4.71-.59,6.47c-.06,.75-.12,1.4-.15,1.9,.45,0,.89,.04,1.33,.13,.2,.05,.38,.08,.53,.14l.37,.15c.2,.09,.3,.15,.3,.15l-.29,.03c-.19,.02-.47,.05-.83,.11-.4,.06-.9,.16-1.49,.31v.04s-.13-.01-.13-.01c-.44,.12-.93,.26-1.45,.45-1.55,.56-3.02,1.32-4.36,2.27-1.76,1.23-3.24,2.81-4.34,4.65-1.29,2.19-1.94,4.7-1.87,7.24,.04,1.38,.25,2.75,.6,4.08,.31,1.38,.66,2.78,1.02,4.2,.74,2.84,1.6,5.75,2.6,8.66s2.12,5.84,3.41,8.69c.64,1.42,1.35,2.82,2.14,4.17,.19,.34,.41,.66,.62,.99,.04,.06,.08,.12,.13,.17,.02,.03,.04,.06,.06,.08,.06,.07,.11,.13,.17,.19,0,0,.02,.02,.02,.03,.12,.12,.24,.23,.37,.34,.03,.03,.07,.06,.11,.08,.12,.09,.24,.17,.36,.25l.08,.05c.16,.09,.32,.18,.48,.26h0c.16,.07,.32,.14,.49,.2l.12,.04c.15,.05,.29,.1,.44,.14l.06,.02c1.47,.38,2.99,.52,4.5,.41,1.49-.08,2.96-.3,4.41-.67,1.4-.34,2.77-.82,4.08-1.42,.47-.22,.93-.46,1.38-.72l.06-.04c.12-.07,.23-.14,.35-.22l.12-.08c.1-.06,.2-.13,.29-.2l.12-.08c.1-.08,.2-.15,.3-.23l.08-.06c.12-.09,.23-.19,.35-.29l.02-.02c.13-.11,.26-.23,.37-.34s.21-.22,.31-.33c.04-.04,.07-.08,.1-.12,.06-.07,.13-.15,.19-.23,.03-.04,.07-.09,.1-.13,.06-.09,.12-.18,.18-.27,.02-.04,.05-.07,.07-.11,.07-.12,.13-.24,.19-.36,.03-.06,.05-.11,.07-.16,.04-.08,.07-.17,.1-.25,.02-.05,.03-.09,.05-.14,.04-.13,.08-.27,.11-.41h0c.03-.16,.05-.31,.06-.47v-.02c0-.14,0-.28-.01-.41,0-.09,0-.17-.02-.26,0-.02,0-.04-.01-.07-.02-.13-.06-.26-.09-.39,0-.02-.01-.04-.02-.06-.11-.36-.25-.71-.36-1.06-.06-.18-.12-.37-.18-.55-.02-.07-.05-.14-.07-.21-.1-.32-.21-.64-.31-.95-.05-.16-.1-.32-.15-.48-.02-.06-.04-.11-.05-.17-.13-.41-.25-.81-.36-1.21-.05-.17-.1-.34-.15-.51-.1-.34-.19-.68-.28-1.01-.05-.17-.09-.35-.14-.52-.09-.36-.19-.72-.27-1.07-.03-.11-.06-.23-.08-.34-.07-.29-.14-.58-.2-.87-.02-.11-.05-.21-.07-.31s-.04-.18-.06-.27c-.07-.35-.14-.69-.21-1.03-.03-.18-.07-.35-.1-.53-.05-.27-.1-.54-.14-.8-.02-.1-.04-.22-.05-.32h0c-.09-.58-.16-1.12-.22-1.62-.13-1.05-.2-2.11-.21-3.17,0-.37,.02-.65,.02-.84v-.29s.06,.1,.14,.29,.18,.47,.32,.83c.36,.99,.68,2,.93,3.03,.12,.47,.23,.99,.34,1.53,.13,0,.28,0,.43,.02,1.56,.16,3.08,.6,4.48,1.3,2.17,1.06,4.2,2.4,6.02,3.99,1.13,.96,2.2,2,3.18,3.12,.53,.6,1.03,1.24,1.5,1.9,.5,.69,.91,1.43,1.25,2.21,.17,.41,.28,.85,.32,1.29,.02,.45,.03,.88,.02,1.33-.02,.9-.08,1.8-.19,2.73-.22,1.9-.56,3.79-1.02,5.65-.23,.97-.53,1.93-.9,2.86l-.16,.35-.04,.08-.04,.09s-.02,.1-.03,.15c0,.24,.04,.47,.13,.69,.19,.46,.45,.9,.75,1.3,.62,.82,1.33,1.58,2.1,2.27,.79,.71,1.62,1.35,2.5,1.94,1.79,1.22,3.79,2.1,5.9,2.58,1.07,.23,2.18,.27,3.26,.13,.54-.08,1.08-.21,1.59-.4,.51-.2,.97-.5,1.35-.9,.79-.79,1.48-1.68,2.05-2.64,.59-.96,1.13-1.96,1.61-2.98,.97-2.06,1.8-4.19,2.49-6.36,1.38-4.33,2.38-8.77,2.97-13.27,.59-4.36,.81-8.76,.68-13.16-.12-4.11-.61-8.2-1.45-12.23-.39-1.92-.94-3.75-1.27-5.58-.05-.27-.1-.55-.14-.82-1.39-6.06-2.05-12.27-1.98-18.49,0-.04,0-.08,0-.11,0-.29,0-.57,0-.85,0-.55,0-1.08,.01-1.58,.03-1.56,.15-3.11,.35-4.66,.07-.53,.14-.94,.19-1.22l.08-.42c.39,2.07,.64,4.17,.76,6.27,.04,.39,.06,.79,.08,1.21,.45-.04,.99-.1,1.62-.19,.66-.08,1.41-.18,2.25-.32,1.69-.25,3.73-.64,6.03-1.21,2.58-.64,5.11-1.46,7.57-2.48,1.4-.58,2.77-1.25,4.1-1.98,1.42-.78,2.78-1.67,4.07-2.66,2.82-2.1,5.11-4.82,6.69-7.95,.81-1.66,1.36-3.44,1.63-5.26m-99.12,1.02c1.11,2.71,3.36,4.79,6.14,5.69l.21,.08c.34,.13,.71,.19,1.08,.16,.16,0,.31-.05,.46-.11-.19-1.53-1.4-4.59-7.88-5.81"></path>
                <path id="Path_2461" d="M109.02,71.58c1.68-.25,3-.5,3.88-.68l.55-.12s-8.53,5.63-5.52,12.62c-.83,.37-1.93,.82-3.31,1.3-1.97,.68-3.98,1.26-6.01,1.73-2.35,.54-5.02,1.05-7.96,1.44-2.94,.36-6.13,.66-9.51,.78l-.64,.03h-.64s-1.28,.03-1.28,.03c-.87,0-1.75,0-2.64-.02-1.78-.03-3.6-.12-5.44-.27-1.88-.15-3.75-.4-5.6-.75-.94-.17-1.88-.4-2.82-.65-.95-.26-1.88-.57-2.79-.93-.93-.37-1.82-.82-2.67-1.35-.88-.53-1.67-1.19-2.35-1.96-.71-.79-1.22-1.73-1.49-2.76l-.08-.39c-.02-.14-.04-.25-.06-.41l-.03-.37v-.41c.01-.54,.12-1.08,.3-1.59,.39-1.01,1.11-1.86,2.03-2.43,.87-.54,1.83-.93,2.83-1.16,.97-.23,1.96-.37,2.95-.43,.98-.07,1.96-.08,2.94-.04,3.86,.25,7.63,.4,11.29,.47s7.21,.06,10.56,0,6.53-.14,9.46-.32c2.93-.17,5.6-.38,7.97-.6s4.41-.52,6.1-.76m-38.54,7.57c.27-.41,.52-1.93,.08-5.45-1.34-.04-2.69-.08-4.05-.15-.14,.95-.26,1.92-.33,2.71-.07,.52-.08,1.04-.02,1.56,.03,.07,.07,.13,.12,.18,1.17,.94,2.67,1.36,4.16,1.16h.04m7.69,.05c.1-1.79,.02-3.58-.23-5.36-.99-.01-2-.03-3.02-.05-.73-.01-1.47-.03-2.2-.04-.12,1.81-.07,3.63,.16,5.43,1.75,.19,3.52,.2,5.28,.02m7.21-.99c-.2-.85-.27-1.72-.2-2.59-.12-.65-.26-1.24-.4-1.74-1.47,0-2.96,0-4.49-.01l-.41,.13c-.13,2.13,.03,4.49,.49,5.09,1.72,.1,3.43-.2,5.01-.87m5.24-4.39h-.21c-1.23,.03-2.5,.05-3.79,.06-.09,.57-.16,1.14-.19,1.71-.13,.94-.01,1.9,.32,2.78,.08,.16,.22,.29,.4,.34,1.29,.22,2.61,.1,3.84-.36l-.37-4.54Zm4.71,5.38c.67-.01,1.31-.31,1.74-.82l-.6-4.71c-.48,.02-.98,.03-1.49,.05l-2.72,.07c-.2,1.33-.2,2.67-.02,4,.7,.99,1.87,1.52,3.08,1.41"></path>
              </g>
            </g>
            <g id="Group_1727">
              <g class="cls-22">
                <g id="Group_1726">
                  <path id="Path_2462" class="cls-12" d="M73.26,81.37c3.44,1.16,7.08,1.62,10.7,1.37,2.15-.19,4.26-.66,6.29-1.41,3.45-1.34,7.16-1.87,10.85-1.56,7.02,.3,7.3,4.96,7.3,4.96-2.48,1.91-24.56,6.51-24.56,6.51-15.49,1.75-28.59-5.01-28.59-5.01-.16-.49-.24-1.01-.23-1.53,0-1.9,1.25-3.58,3.07-4.13,5.33-1.66,15.18,.81,15.18,.81"></path>
                  <path id="Path_2463" class="cls-4" d="M83.96,82.74c2.15-.19,4.26-.66,6.29-1.41,3.45-1.34,7.16-1.87,10.85-1.56,7.02,.3,7.3,4.96,7.3,4.96-2.48,1.91-24.56,6.51-24.56,6.51-15.49,1.75-28.59-5.01-28.59-5.01-.16-.49-.24-1.01-.23-1.53,0-1.9,1.25-3.58,3.07-4.13,5.33-1.66,15.18,.81,15.18,.81,3.44,1.16,7.08,1.62,10.7,1.37Z"></path>
                </g>
              </g>
            </g>
            <g id="Group_1729">
              <g id="Group_1728">
                <path id="Path_2465" class="cls-20" d="M107.93,83.41c-3.01-6.99,5.53-12.62,5.53-12.62,0,0-.12,.9-.33,2.25h0c-1.29,1.13-2.32,2.51-3.03,4.06-.34,.74-.57,1.52-.68,2.33-.09,.78-.08,1.57,.05,2.35v.03c.03,.19,.07,.38,.12,.56l.11,.19-.05,.02c.13,.47,.3,.92,.49,1.37,.03,.07,.06,.13,.1,.2-.7,1.1-1.48,1.16-2.31-.73"></path>
                <path id="Path_2466" class="cls-20" d="M52.64,44.31c-.34,.14-.64,.28-.89,.39-.5,.22-.79,.33-.79,.33,0,0,.22-.22,.62-.59,.24-.22,.49-.44,.74-.64,.3-.23,.64-.51,1.03-.76s.81-.55,1.29-.8c.49-.28,1-.53,1.52-.75,.56-.25,1.13-.46,1.71-.65,.6-.17,1.21-.35,1.83-.47,.62-.13,1.24-.22,1.86-.28,.62-.05,1.23-.08,1.82-.09s1.16,.02,1.69,.05c.53,.05,1.04,.1,1.5,.17,.23,.03,.45,.06,.66,.1l.59,.11c.37,.07,.69,.14,.96,.21,.52,.13,.82,.22,.82,.22,0,0-.31,.04-.85,.08s-1.31,.1-2.22,.16c-.46,.02-.95,.08-1.46,.11-.52,.05-1.06,.08-1.62,.15-.28,.04-.56,.06-.85,.09-.28,.04-.57,.08-.86,.12-.58,.1-1.16,.18-1.74,.31-.58,.1-1.15,.26-1.72,.39-.56,.17-1.11,.3-1.64,.49-.53,.16-1.04,.35-1.52,.53-.25,.08-.48,.18-.7,.27l-.66,.26-1.14,.48"></path>
                <path id="Path_2467" class="cls-20" d="M30.62,75.66c.45-2.94,1.36-5.78,2.7-8.43l3.94,2.02c-3,3.01-6.64,6.41-6.64,6.41m5.29-6.13c-.72-.42-1.5-.75-2.3-.97-1,2.32-1.8,4.96-1.8,4.96,1.13-1.22,4.11-3.99,4.11-3.99"></path>
                <path id="Path_2468" class="cls-15" d="M17.76,51.29c-2.32-.1-3.62,2.54-3.38,4.58,.04,.29,.09,.59,.16,.88,.08-.29,.13-.58,.18-.86,.37-1.9,1.08-3.79,3.05-4.6"></path>
              </g>
            </g>
          </g>
        </g>
      </g>
    </g>
  </g>
</svg>
