<?xml version="1.0" encoding="UTF-8"?>
<svg xmlns="http://www.w3.org/2000/svg" xmlns:xlink="http://www.w3.org/1999/xlink" width="172" height="163" viewBox="0 0 172 163">
  <defs>
    <clipPath id="clip-path">
      <rect id="Rectangle_787" data-name="Rectangle 787" width="172" height="163" transform="translate(3394 921)" fill="#fff"></rect>
    </clipPath>
    <clipPath id="clip-path-2">
      <rect id="Rectangle_771" data-name="Rectangle 771" width="217" height="204" transform="translate(0 -0.238)" fill="#fff" stroke="#707070" stroke-width="1"></rect>
    </clipPath>
    <clipPath id="clip-path-3">
      <rect id="Rectangle_768" data-name="Rectangle 768" width="167.333" height="189.622" fill="none"></rect>
    </clipPath>
    <clipPath id="clip-path-4">
      <path id="Path_2506" data-name="Path 2506" d="M152.343,52.055c-3.823.109-6.734,1.177-6.6,3.184a9.906,9.906,0,0,0,.611,2.767c3.054,2.88,15.054,3.9,21.242-1.081-3.109-3.267-9.516-4.88-14.592-4.88q-.334,0-.66.009" transform="translate(-145.737 -52.046)" fill="none"></path>
    </clipPath>
    <clipPath id="clip-path-6">
      <path id="Path_2517" data-name="Path 2517" d="M79.99,49.218c-3.5.172-6.152,1.279-6.027,3.268a10.434,10.434,0,0,0,.564,2.738c2.8,2.808,13.768,3.628,19.413-1.424-2.775-3.107-8.4-4.6-12.976-4.6q-.5,0-.974.023" transform="translate(-73.959 -49.195)" fill="none"></path>
    </clipPath>
  </defs>
  <g id="Mask_Group_31" data-name="Mask Group 31" transform="translate(-3394 -921)" clip-path="url(#clip-path)">
    <g id="Mask_Group_29" data-name="Mask Group 29" transform="translate(3369 879.238)" clip-path="url(#clip-path-2)">
      <g id="Group_1741" data-name="Group 1741" transform="translate(27.613 42.581)">
        <g id="Group_1732" data-name="Group 1732">
          <g id="Group_1731" data-name="Group 1731" clip-path="url(#clip-path-3)">
            <path id="Path_2469" data-name="Path 2469" d="M138.534,84.285c20.383-18.5,25.288-70.04,9.5-81.075-11.431-7.99-23.729,13.145-25.058,15.44-14.459-3-31.317-4.026-44.231-2.248C70.118,8,68.128-.142,57.664,3.3c-11.915,3.914-21.953,53.152.618,76.169-2-.1-8.143-.789-12.258-3.918-4.933-3.753-11.835-16.6-23.007-29.582C13.039,34.371-.146,40.891,2.446,55.789c6.584,30.925,36.854,45.18,53.225,44.4,3.011.709,6.505,4.192,8.573,8.919-11.591,34.809-2.6,57.292-2.6,57.292,1.517,4.552,8.405,6.621,12.276,6.621,7.843,0,11.291-4.107,11.462-6.621.734-10.8,5.164-9.471,5.164-9.471,2.693,2.96,2.245,4.593,3.1,20.231.567,10.422,9.8,11.861,15.906,11.861,15.5,0,14.321-15.1,14.321-15.1-5.1-47.185,5.623-71.552,5.623-71.552,11.362,5.977,9.653,19.277,5.137,30.8-4.984,12.721.886,23.909,8.4,26.054,19.748,4.751,22.786-19.771,22.786-19.771,7.357-41.687-27.28-55.173-27.28-55.173" transform="translate(-0.582 -0.389)" fill="#427bbe"></path>
            <path id="Path_2470" data-name="Path 2470" d="M153.209,78.95c-35.114,7.2-62.3,2.326-80.384-1.609,0,0,5.077,25.49,39.617,26.375,34.665.889,40.689-18.777,40.767-24.766" transform="translate(-20.04 -21.282)" fill="#1d1d1b"></path>
            <path id="Path_2471" data-name="Path 2471" d="M117.338,83.015c.088,1.124.133,2.249.132,3.206a15.821,15.821,0,0,1-.1,2.072,1.193,1.193,0,0,1-.24.587,1.312,1.312,0,0,1-.37.313,3.066,3.066,0,0,1-1,.338,8.588,8.588,0,0,1-1.522.117c-.265,0-.545-.008-.838-.022h-.038c-.636,0-1.205-.015-1.694-.058a4.127,4.127,0,0,1-1.579-.367.848.848,0,0,1-.3-.259.75.75,0,0,1-.118-.365c-.011-.116-.022-.331-.03-.608s-.012-.62-.012-1.01c0-1.154.042-2.712.165-4.2q3.677.2,7.55.261m3.231.013c-.061,1.089-.084,2.149-.084,2.99,0,.381.005.717.012.989s.019.483.029.6a.681.681,0,0,0,.186.444,1.406,1.406,0,0,0,.6.323,10.373,10.373,0,0,0,2.837.262h.036c.288.014.562.022.822.022a8.477,8.477,0,0,0,1.492-.114,3.01,3.01,0,0,0,.982-.332,1.294,1.294,0,0,0,.362-.307,1.175,1.175,0,0,0,.235-.576,15.517,15.517,0,0,0,.1-2.031c0-.742-.028-1.586-.081-2.452-2.565.118-5.072.175-7.527.184m10.382-.338c-.066,1.11-.091,2.2-.091,3.054,0,.367.005.692.012.955s.017.466.028.576a.655.655,0,0,0,.18.428,1.352,1.352,0,0,0,.576.312,10.01,10.01,0,0,0,2.74.253h.035c.278.015.543.022.794.022a8.151,8.151,0,0,0,1.441-.11,2.906,2.906,0,0,0,.948-.32,1.26,1.26,0,0,0,.35-.3,1.126,1.126,0,0,0,.227-.555,15.114,15.114,0,0,0,.1-1.961c0-.883-.04-1.918-.12-2.955q-3.672.376-7.219.6M155.4,79.476q-3.155.635-6.236,1.144c-.023.718-.033,1.4-.033,1.969,0,.735.016,1.308.035,1.541a.807.807,0,0,0,.171.478,1.08,1.08,0,0,0,.478.3,7.453,7.453,0,0,0,2.332.247h.036q.358.021.68.021a5.968,5.968,0,0,0,1.223-.107,2.977,2.977,0,0,0,.31-.085c.423-1.16.769-2.29,1.073-3.362,0-.665-.027-1.4-.068-2.149m-75.821-.714c-.018.515-.026,1-.026,1.42,0,.608.016,1.092.035,1.331a4.435,4.435,0,0,0,.344,1.424,2.223,2.223,0,0,0,.9,1.069,2.076,2.076,0,0,0,1.047.253h.033c.238.014.473.021.7.021a7.368,7.368,0,0,0,1.832-.2,2.254,2.254,0,0,0,1.106-.573.942.942,0,0,0,.248-.535,18.138,18.138,0,0,0,.086-2.035c0-.309-.005-.641-.012-.981-2.2-.387-4.3-.79-6.3-1.195m19.338,3.083c-.1,1.2-.133,2.393-.133,3.314,0,.679.02,1.217.042,1.46a2.417,2.417,0,0,0,1,1.576,4.346,4.346,0,0,0,2.7.85h.033c.19.009.373.015.552.015a6.36,6.36,0,0,0,2.044-.286,2.227,2.227,0,0,0,1.1-.726,1.474,1.474,0,0,0,.277-.679,15.827,15.827,0,0,0,.1-2.072c0-.826-.034-1.779-.1-2.746q-3.931-.285-7.614-.705m-10.3-1.426c-.046.8-.063,1.569-.063,2.2,0,.676.021,1.213.045,1.451a1.717,1.717,0,0,0,.29.755,3.065,3.065,0,0,0,.78.793,5.012,5.012,0,0,0,2.949.86h.032q.309.014.6.014a7.45,7.45,0,0,0,2.231-.29,2.459,2.459,0,0,0,1.2-.731,1.377,1.377,0,0,0,.289-.657,14.591,14.591,0,0,0,.112-2.061c0-.354-.009-.737-.022-1.129-2.945-.36-5.759-.77-8.443-1.209m52.663,1.324c-.031.649-.045,1.274-.045,1.814,0,.36.007.682.016.947s.025.473.04.591a2.851,2.851,0,0,0,.483,1.394,1.7,1.7,0,0,0,.959.613,3.972,3.972,0,0,0,1.052.12h.075q.069,0,.135,0a2.026,2.026,0,0,0,.968-.238,2.434,2.434,0,0,0,.781-.681,4.877,4.877,0,0,0,.871-2.519c.027-.306.041-.668.041-1.065,0-.517-.027-1.1-.075-1.7-1.788.269-3.552.5-5.3.713" transform="translate(-21.892 -21.674)" fill="#fff"></path>
            <path id="Path_2472" data-name="Path 2472" d="M135.555,102.459l-1.119.4a5.928,5.928,0,0,0-1.618-1.334,4.074,4.074,0,0,0-1.937-.5,4.985,4.985,0,0,0-2.6.806,10.882,10.882,0,0,0-2.691,2.5,13.891,13.891,0,0,0-1.036,1.482l-.013.022-.011.023c-.118.234-.281.582-.489,1.038-.624,1.373-1.645,3.7-2.789,6.291q-.27.61-.547,1.235c-.527,1.188-1.071,2.4-1.605,3.586-.846,1.87-1.671,3.652-2.372,5.09a23.768,23.768,0,0,1-2.947,4.392,34.018,34.018,0,0,1-8.763,7.561,25.486,25.486,0,0,1-13.042,3.719,24.873,24.873,0,0,1-5.031-.521,17.5,17.5,0,0,1-2.114-.576A14.745,14.745,0,0,1,83,136.922a12.473,12.473,0,0,1-6.374-7.45c-.185-.531-.338-1.07-.47-1.612a21.008,21.008,0,0,1-.4-2.1,26.037,26.037,0,0,1-.234-3.539,31.865,31.865,0,0,1,.287-4.2c.028-.209.057-.412.086-.6.093-.605.186-1.091.255-1.423.035-.165.063-.293.083-.377.009-.038.015-.063.02-.084a29.8,29.8,0,0,1,4.417-8.415c.04-.053.08-.106.121-.157.08-.1.157-.21.238-.31A22.957,22.957,0,0,1,83,104.495a21.377,21.377,0,0,1,7.286-4.6,26.02,26.02,0,0,1,9.185-1.6,30.213,30.213,0,0,1,4.94.407c.162.027.313.054.456.08-1.737,1.089-8.493,5.654-11.461,12.472-.223.512-.427,1.036-.6,1.573,0,0,.354-.6,1.016-1.544,2.4-3.433,8.844-11.516,17.294-12.941l-.1,0a45.617,45.617,0,0,1,6.037-.439,25.1,25.1,0,0,1,4.9.432,12.328,12.328,0,0,1,3.183,1.059c-4.2,3.084-7.588,10.561-8.786,13.45-.3.729-.468,1.171-.468,1.171.186-.4.372-.786.557-1.164,4.827-9.86,9.4-12.524,11.917-13.2a12.742,12.742,0,0,1,1.569-.1,7.994,7.994,0,0,1,3.346.646,4.6,4.6,0,0,1,2.285,2.256" transform="translate(-20.782 -26.943)" fill="#d75c72"></path>
            <path id="Path_2473" data-name="Path 2473" d="M56.762,123.264c-30.335-5.438-45.495-27.237-45.495-27.237C16.494,109.536,36.4,126.5,57.016,126.354c0,0,.409,1.169-.254-3.091" transform="translate(-3.1 -26.424)" fill="#265480"></path>
            <path id="Path_2474" data-name="Path 2474" d="M77.217,34.986c2.136-5.608,6.328-6.237,9.106-5.713s6.391,3.557,6.658,6.656c-4.817-4.972-11.441-6.55-15.5-.943" transform="translate(-21.248 -8.014)" fill="#5a97d1"></path>
            <path id="Path_2475" data-name="Path 2475" d="M17.717,60.536s-2.581,5.458-8.183,6.172-2.706-5.542-.055-7.689,8.238,1.517,8.238,1.517" transform="translate(-1.741 -16.055)" fill="#5a97d1"></path>
            <path id="Path_2476" data-name="Path 2476" d="M149.971,38.162c4.483-6.526,9.042-6.158,12.187-5.346a9.055,9.055,0,0,1,6.217,8.128c-4.907-6.373-11.2-7.943-18.4-2.782" transform="translate(-41.269 -8.91)" fill="#5a97d1"></path>
            <path id="Path_2477" data-name="Path 2477" d="M53.374,93.725A22.869,22.869,0,0,1,42,85.813C36.961,79.364,20.436,59.011,19.025,58S3.646,50.881,3.243,65.995c0,0,4.069-17.005,16.464-4.155,8.829,9.154,15.2,22.751,24.174,30.969a19.087,19.087,0,0,0,14.567,4.554c1.146-.12,2.694-2.127.773-2.359a39.158,39.158,0,0,1-5.848-1.279" transform="translate(-0.892 -15.391)" fill="#5a97d1"></path>
            <path id="Path_2478" data-name="Path 2478" d="M86.944,154.537s-9.518,39.164-.229,54.989a9.265,9.265,0,0,0,6.88,5.045c-7.683-1.95-10.565-4.931-10.565-4.931-6.177-23.736,1.686-56.253,1.686-56.253Z" transform="translate(-22.197 -42.209)" fill="#5a97d1"></path>
            <path id="Path_2479" data-name="Path 2479" d="M127.133,113.244a.342.342,0,0,1-.047,0c-2.342,5.077-6.226,13.363-7.609,15.529-2.035,3.186-12.944,20.754-33.382,13.566-.731,1.521-.291,1.833-.291,1.833,5.042,3.848,14.764,4.2,23.613-1.3s12.632-11.594,15.007-19.423c1.189-3.919,1.721-7.3,2.986-10.038-.435.067.162-.21-.276-.169" transform="translate(-23.575 -31.161)" fill="#265480"></path>
            <path id="Path_2480" data-name="Path 2480" d="M168.129,137.93s-5.8,17.631-6.277,31.545c-.6,17.541,1.469,35.325,1.906,43.235.553,10.028-3.675,11.966-7.251,13.5,9.561-2.349,10.48-13.283,9.421-19.015s-.378-52.986,6.05-66.268c-1.745-2.809-3.848-2.995-3.848-2.995" transform="translate(-43.067 -37.955)" fill="#5a97d1"></path>
            <path id="Path_2481" data-name="Path 2481" d="M113.907,210.418c-4.446,1.169-4.964,6.951-5.182,11.649a10.579,10.579,0,0,1-3.169,7.219s7.373.423,7.9-3.873c.75-7.246,2.643-10.573,5.549-10.969-.456-1.024-5.1-4.026-5.1-4.026" transform="translate(-29.047 -57.902)" fill="#265480"></path>
            <path id="Path_2482" data-name="Path 2482" d="M183.879,184.963c-2.007-8.878,3.108-18.78,2.269-29.979-1.067-14.245-12.176-18.755-18.97-19.5,0,0,16.468,4.324,16.227,19.846-.231,14.854-6.222,16.015-5.34,28.806.9,13.109,20.915,17.607,28.037,3.874-6.891,9.444-20.215,5.833-22.222-3.045" transform="translate(-46.004 -37.282)" fill="#265480"></path>
            <path id="Path_2483" data-name="Path 2483" d="M90.633,17.5C87.011,13.7,82.9,4.784,76.605,5.489S62.354,21.655,63.84,47.188s13.425,31.72,13.425,31.72A22.718,22.718,0,0,0,74.8,80.872C56.758,57.419,60.78,39.057,62.441,27.428S69.17,1.491,79.49,2.961c4.985.159,14.81,13.93,14.81,13.93Z" transform="translate(-16.749 -0.786)" fill="#5a97d1"></path>
            <path id="Path_2484" data-name="Path 2484" d="M91.057,25.084a216.585,216.585,0,0,1,32.27-.615c9.817.481,19.693,1.356,33.6,3.041-25.969-8.635-52.819-6.382-65.868-2.425" transform="translate(-25.057 -5.937)" fill="#5a97d1"></path>
            <path id="Path_2485" data-name="Path 2485" d="M171.793,18.968S181.668,4.5,188.809,4.976s18.545,22.04,3.847,57.077c-6.917,16.486-13.6,20.349-13.6,20.349l5.339,1.911c11.225-10.922,18.432-30.624,18.766-49.265s-4.333-34.8-16.7-33.455c-11.5,1.779-17.681,16.538-17.681,16.538Z" transform="translate(-46.445 -0.417)" fill="#5a97d1"></path>
            <path id="Path_2486" data-name="Path 2486" d="M205.591,130.317c-10.669-12.856-19.4-16.356-30.284-18.658,16.8,7.967,27.121,15.424,32.949,31.486,6.294,17.344,2.712,40.865-7.638,46.2,18.36-5.729,16.448-46.613,4.973-59.025" transform="translate(-48.24 -30.726)" fill="#5a97d1"></path>
            <path id="Path_2487" data-name="Path 2487" d="M119.348,105.481c0,.533-.859.964-1.919.964s-1.919-.431-1.919-.964.859-.963,1.919-.963,1.919.431,1.919.963" transform="translate(-31.786 -28.761)" fill="#e9809a"></path>
            <path id="Path_2488" data-name="Path 2488" d="M106.133,100.725c0,.532-.859.963-1.919.963s-1.919-.431-1.919-.963.859-.963,1.919-.963,1.919.431,1.919.963" transform="translate(-28.15 -27.452)" fill="#e9809a"></path>
            <path id="Path_2489" data-name="Path 2489" d="M125.243,101.934c0,.707-1.141,1.279-2.549,1.279s-2.548-.573-2.548-1.279,1.141-1.279,2.548-1.279,2.549.573,2.549,1.279" transform="translate(-33.061 -27.698)" fill="#e9809a"></path>
            <path id="Path_2490" data-name="Path 2490" d="M107.163,65.1s-2.807,8.385,2.759,9.793a4.781,4.781,0,0,0,6.125-2.945c2.883,4.545,6.36,5.323,9.315,3.543,3.792-2.284,1.536-11.353,1.536-11.353-4.419-1.861-19.735.962-19.735.962" transform="translate(-29.294 -17.476)" fill="#5a97d1"></path>
            <path id="Path_2491" data-name="Path 2491" d="M167.863,58.934s.025.109.073.311a6.5,6.5,0,0,1,.156.888,5.021,5.021,0,0,1,.049.651,5.8,5.8,0,0,1-.009.773,8.355,8.355,0,0,1-.318,1.868,8.825,8.825,0,0,1-.968,2.135,9.48,9.48,0,0,1-1.784,2.1,11.474,11.474,0,0,1-2.548,1.711c-.236.12-.481.231-.728.333s-.5.2-.755.295a15.255,15.255,0,0,1-1.567.452,14.748,14.748,0,0,1-3.219.372,15.108,15.108,0,0,1-3.087-.295c-.245-.053-.487-.1-.72-.167l-.351-.1-.173-.049-.087-.023-.051-.014-.019-.007-.041-.013c-.211-.072-.389-.131-.636-.231l-.341-.138c-.107-.048-.208-.1-.311-.143a10.322,10.322,0,0,1-2.092-1.308,8.884,8.884,0,0,1-1.4-1.415,6.744,6.744,0,0,1-.783-1.255,3.726,3.726,0,0,1-.206-.494,3.359,3.359,0,0,1-.117-.372c-.055-.2-.078-.311-.078-.311s.083.082.236.238a3.367,3.367,0,0,0,.286.275c.112.106.241.225.4.35a12.306,12.306,0,0,0,2.723,1.717,13.114,13.114,0,0,0,1.985.736l.269.077.257.059c.154.039.4.081.6.127l.57.093c.2.033.409.048.612.077a16.412,16.412,0,0,0,2.543.082,15.249,15.249,0,0,0,2.582-.34,12.143,12.143,0,0,0,1.247-.338c.205-.064.41-.127.607-.205s.4-.149.587-.236a11.824,11.824,0,0,0,2.127-1.176,10.567,10.567,0,0,0,1.686-1.479,10.728,10.728,0,0,0,1.215-1.611,11.842,11.842,0,0,0,.781-1.547c.111-.239.188-.47.265-.686s.146-.414.2-.594c.117-.36.2-.662.246-.864s.089-.312.089-.312" transform="translate(-40.107 -16.217)" fill="#5a97d1"></path>
            <path id="Path_2492" data-name="Path 2492" d="M95.047,57.838a6.5,6.5,0,0,0,.006-.767,5.39,5.39,0,0,0-.046-.645,7.1,7.1,0,0,0-.144-.878c-.046-.2-.069-.308-.069-.308s-.027.108-.08.311-.117.5-.223.861c-.051.181-.1.379-.183.594s-.14.446-.241.684a12.521,12.521,0,0,1-.71,1.55,10.929,10.929,0,0,1-1.107,1.618,10.253,10.253,0,0,1-1.538,1.5,10.836,10.836,0,0,1-1.942,1.2c-.174.089-.354.169-.535.244s-.367.147-.554.213a10.539,10.539,0,0,1-1.139.356,12.972,12.972,0,0,1-2.359.38,13.846,13.846,0,0,1-2.325-.039c-.186-.025-.375-.038-.558-.066l-.523-.083c-.188-.042-.408-.08-.549-.117l-.235-.055-.246-.072a11.133,11.133,0,0,1-1.817-.7,11.9,11.9,0,0,1-1.146-.644q.115.134.224.28a.2.2,0,0,1,.3.138c.134.673-1.383-.634-1.3.043.374.264,2.427,2.5,2.879,2.72l.284.137.312.131c.225.1.389.151.581.219l.037.012.017.008.048.014.078.021.159.045.32.089c.215.058.436.106.659.154a12.793,12.793,0,0,0,2.823.242,12.6,12.6,0,0,0,2.941-.422,13.675,13.675,0,0,0,1.432-.475c.232-.095.465-.192.689-.306s.448-.219.664-.342a10.75,10.75,0,0,0,2.324-1.739,9.487,9.487,0,0,0,1.627-2.115A9.342,9.342,0,0,0,94.76,59.7a9.088,9.088,0,0,0,.288-1.861" transform="translate(-20.915 -15.201)" fill="#5a97d1"></path>
            <path id="Path_2493" data-name="Path 2493" d="M80.493,122.84S75.92,137.723,89.285,140.7c0,0,14.752,3.828,22.873-10.566,0,0-10.28,10.9-22.412,7.917s-9.252-15.215-9.252-15.215" transform="translate(-21.942 -33.803)" fill="#e9809a"></path>
            <path id="Path_2494" data-name="Path 2494" d="M162.964,107.151A51.211,51.211,0,0,0,147.7,88.641c-1.6-1.227-3.106-2.239-4.413-3.052-1.423-.886-2.616-1.536-3.453-1.964a40.109,40.109,0,0,0,3.453-3.911,50.971,50.971,0,0,0,3.772-5.591,78.744,78.744,0,0,0,8.117-20.754,95.429,95.429,0,0,0,2.777-22.4,59.208,59.208,0,0,0-2.34-17.488,28.655,28.655,0,0,0-3.023-6.713,16.466,16.466,0,0,0-4.4-4.758A10.509,10.509,0,0,0,142.07,0a11.786,11.786,0,0,0-4.134.79,21.343,21.343,0,0,0-6.451,4.084,48.1,48.1,0,0,0-7.168,8.206c-1.756,2.49-2.788,4.34-2.8,4.362l.354.2-2.119-.548-2.574-.562c-1.764-.41-3.649-.7-5.595-1.036-.972-.18-1.972-.272-2.978-.409l-1.521-.193c-.51-.066-1.021-.133-1.538-.17l-3.119-.267-.784-.067-.787-.042-1.577-.081c-2.1-.133-4.209-.138-6.283-.174-1.036,0-2.066.041-3.082.059l-1.515.036c-.5.017-1,.053-1.492.087l-2.9.2-2.774.305L79.9,14.94l-1.079.175C75.446,11.794,73.095,8.5,70.726,5.9a17.594,17.594,0,0,0-3.99-3.426A9.692,9.692,0,0,0,61.705,1.11a15.3,15.3,0,0,0-4.77.857,8.345,8.345,0,0,0-2.822,1.672,19.842,19.842,0,0,0-4.242,5.679A53.226,53.226,0,0,0,45.207,22.81,82.038,82.038,0,0,0,43.4,40,71.3,71.3,0,0,0,46.5,61.35q.753,2.379,1.713,4.671a44.617,44.617,0,0,0,7.159,11.8c-.787-.121-1.674-.289-2.6-.522a21.316,21.316,0,0,1-4.557-1.675A13.566,13.566,0,0,1,46.2,74.37a24.149,24.149,0,0,1-3.925-4.2c-2.24-2.859-4.871-6.723-7.988-11.091S27.565,49.832,23.346,44.93a19.517,19.517,0,0,0-5.8-4.711,13.05,13.05,0,0,0-5.971-1.527A10.376,10.376,0,0,0,3.77,42.135,13.433,13.433,0,0,0,.588,51.294a20.851,20.851,0,0,0,.471,4.31A53.884,53.884,0,0,0,9.632,75.374a61.974,61.974,0,0,0,21.8,19.064A59.692,59.692,0,0,0,43.3,99.215a40.867,40.867,0,0,0,10.516,1.6,17.918,17.918,0,0,0,1.779,4.84,13.892,13.892,0,0,0,3.91,4.492,14.537,14.537,0,0,0,2.377,1.418,109.16,109.16,0,0,0-4.974,31.8c0,14.494,3.358,22.928,3.394,23.019h0a8.02,8.02,0,0,0,2.267,3.32,15.112,15.112,0,0,0,5.435,2.98,18.556,18.556,0,0,0,5.491.943,15.515,15.515,0,0,0,9.185-2.554,8.95,8.95,0,0,0,2.351-2.43,5.557,5.557,0,0,0,.913-2.559,23.527,23.527,0,0,1,.785-4.935,9.2,9.2,0,0,1,.868-2.1,3.479,3.479,0,0,1,1.244-1.333,1.681,1.681,0,0,1,.791-.23,6.249,6.249,0,0,1,1.081,1.663,8.433,8.433,0,0,1,.536,1.969,52.477,52.477,0,0,1,.473,5.5c.133,2.514.269,5.809.509,10.213a13.472,13.472,0,0,0,2.024,6.735,11.245,11.245,0,0,0,3.139,3.181,16.164,16.164,0,0,0,5.9,2.351,29.594,29.594,0,0,0,5.83.529,16.835,16.835,0,0,0,8.4-1.953,12.393,12.393,0,0,0,3.805-3.32,15.229,15.229,0,0,0,2.626-5.8,19.494,19.494,0,0,0,.5-4.3c0-.484-.022-.77-.023-.792v-.03a228.333,228.333,0,0,1-1.372-24.562,160.848,160.848,0,0,1,3.476-34.847,90.428,90.428,0,0,1,2.38-8.758c.259-.778.481-1.4.655-1.86a13.99,13.99,0,0,1,5.29,5.525,17.66,17.66,0,0,1,1.816,8.253c0,4.831-1.41,10.2-3.389,15.246a26.761,26.761,0,0,0-1.916,9.764,21.167,21.167,0,0,0,3.19,11.444,14.11,14.11,0,0,0,7.776,6.157l.02.006.02.005a21.747,21.747,0,0,0,5.082.638,16.164,16.164,0,0,0,5.53-.934,16.426,16.426,0,0,0,6.969-4.985,28.86,28.86,0,0,0,5.2-10.016,34.475,34.475,0,0,0,1.214-5.283,60.409,60.409,0,0,0,1.124-11.383,47.685,47.685,0,0,0-4.532-20.686M54.052,88.112l-.009.035a27.339,27.339,0,0,0-.517,2.925,33.59,33.59,0,0,0-.273,4.2,28.182,28.182,0,0,0,.223,3.558,43.033,43.033,0,0,1-13.4-2.721A61.828,61.828,0,0,1,17.533,81.748,52.937,52.937,0,0,1,2.994,55.2a18.873,18.873,0,0,1-.428-3.9,11.464,11.464,0,0,1,2.673-7.835,8.388,8.388,0,0,1,6.341-2.789,11.08,11.08,0,0,1,5.067,1.308,17.546,17.546,0,0,1,5.2,4.242C27.395,52.666,31.892,59.091,35.632,64.4c1.871,2.654,3.551,5.027,5.089,6.99a25.839,25.839,0,0,0,4.284,4.557,16.521,16.521,0,0,0,3.206,1.87,24.441,24.441,0,0,0,4.076,1.4,30.114,30.114,0,0,0,5.526.851l.264.013a32.258,32.258,0,0,0-4.013,8Zm6.436,20.711a12.888,12.888,0,0,1-4.482-6.294c-.185-.531-.337-1.07-.47-1.613a20.927,20.927,0,0,1-.4-2.1,25.789,25.789,0,0,1-.234-3.539,31.857,31.857,0,0,1,.287-4.2c.028-.209.057-.412.086-.6.093-.605.186-1.091.255-1.423.034-.165.063-.293.083-.377.009-.038.014-.064.02-.084a29.8,29.8,0,0,1,4.416-8.415c.041-.053.08-.106.121-.157.08-.1.158-.21.238-.31a22.856,22.856,0,0,1,1.976-2.153,21.391,21.391,0,0,1,7.286-4.6,26.019,26.019,0,0,1,9.185-1.6,30.205,30.205,0,0,1,4.94.407c.162.027.313.054.457.08C82.514,72.932,75.759,77.5,72.79,84.316c-.223.512-.427,1.036-.6,1.573,0,0,.354-.6,1.015-1.544C75.6,80.911,82.046,72.829,90.5,71.4l-.1,0a45.63,45.63,0,0,1,6.038-.439,25.155,25.155,0,0,1,4.9.431,12.366,12.366,0,0,1,3.183,1.06c-4.2,3.084-7.589,10.561-8.786,13.45-.3.729-.467,1.171-.467,1.171.186-.4.372-.786.557-1.164,4.827-9.86,9.4-12.524,11.917-13.2a12.748,12.748,0,0,1,1.569-.1,8,8,0,0,1,3.345.645,4.6,4.6,0,0,1,2.286,2.257c.049.1.1.2.146.315l1.06-.434.465-.19a6.819,6.819,0,0,0-.548-1.06,6.288,6.288,0,0,0-.841-1.073,6.748,6.748,0,0,0-2.89-1.694,10.486,10.486,0,0,0-3.023-.413,15.209,15.209,0,0,0-3.385.4,10.9,10.9,0,0,0-1.762-.86,15.262,15.262,0,0,0-2.5-.719,26.7,26.7,0,0,0-5.222-.464A49.735,49.735,0,0,0,88.673,70c-1.355.22-2.344.432-2.749.523a27.919,27.919,0,0,0-4.547-.711c-.773-.061-1.619-.1-2.522-.1a26.527,26.527,0,0,0-12.617,3.01A34.553,34.553,0,0,1,57.269,63.2a29.77,29.77,0,0,1-2.654-5.287q-.1-.253-.175-.481,1.109.237,2.264.476c0,.208-.005.41-.005.6,0,.63.015,1.123.038,1.419a5.1,5.1,0,0,0,.767,2.393,3.115,3.115,0,0,0,1.049.992,3.189,3.189,0,0,0,1.571.4h0c.258.015.515.023.77.023a7.287,7.287,0,0,0,2.738-.445,2.886,2.886,0,0,0,1.033-.7,2.079,2.079,0,0,0,.532-1.15,17.5,17.5,0,0,0,.094-1.89l.232.041c-.017.486-.025.947-.026,1.354,0,.708.02,1.255.051,1.582a3.044,3.044,0,0,0,.5,1.353,5.675,5.675,0,0,0,4.813,2.254q.338.016.66.016a7.561,7.561,0,0,0,3.347-.639,3.484,3.484,0,0,0,.939-.676c.005.083.01.159.016.225a3.67,3.67,0,0,0,1.488,2.47,5.621,5.621,0,0,0,3.452,1.119c.209.011.415.016.615.016a6.607,6.607,0,0,0,3.127-.646,3.156,3.156,0,0,0,1.044-.881,2.762,2.762,0,0,0,.517-1.258,16.885,16.885,0,0,0,.117-2.259c0-.481-.012-1-.033-1.539l.551.037c-.066,1.154-.089,2.271-.09,3.162,0,.4.005.753.013,1.045s.02.522.034.689a1.985,1.985,0,0,0,.543,1.225,2.454,2.454,0,0,0,.825.546,5.693,5.693,0,0,0,1.593.361,19.61,19.61,0,0,0,2,.083h.007c.3.015.593.023.874.023a6.984,6.984,0,0,0,2.89-.483A2.719,2.719,0,0,0,96.4,68a2.478,2.478,0,0,0,.5-1.193,16.905,16.905,0,0,0,.117-2.26c0-.637-.02-1.343-.057-2.07l.571,0c-.022.676-.033,1.316-.034,1.864,0,.391.005.738.013,1.024s.019.512.033.675a1.947,1.947,0,0,0,.532,1.2,2.4,2.4,0,0,0,.809.535,5.585,5.585,0,0,0,1.561.354,19.523,19.523,0,0,0,1.962.08h.008c.294.015.581.022.855.022a6.849,6.849,0,0,0,2.833-.473,2.683,2.683,0,0,0,.988-.756,2.434,2.434,0,0,0,.492-1.17,16.664,16.664,0,0,0,.115-2.215c0-.441-.01-.915-.028-1.406l.278-.014c-.023.68-.033,1.319-.033,1.868,0,.378,0,.713.012.989s.018.494.032.652a1.884,1.884,0,0,0,.514,1.159,2.316,2.316,0,0,0,.781.517,5.365,5.365,0,0,0,1.508.342,18.438,18.438,0,0,0,1.893.078h.008c.285.014.562.022.827.022a6.619,6.619,0,0,0,2.736-.457,2.59,2.59,0,0,0,.954-.73,2.352,2.352,0,0,0,.475-1.13,15.888,15.888,0,0,0,.111-2.139c0-.614-.02-1.295-.056-2l.768-.086c0,.205-.006.405-.006.593,0,.371.006.705.017.986s.026.507.047.679a4.514,4.514,0,0,0,.361,1.35,2.669,2.669,0,0,0,1.255,1.308,4.251,4.251,0,0,0,1.9.375h.044c.055,0,.11,0,.165,0a3.071,3.071,0,0,0,1.454-.358,3.763,3.763,0,0,0,1.526-1.612,6.424,6.424,0,0,0,.667-2.407c.031-.345.046-.735.046-1.157,0-.252-.007-.518-.018-.79l.341-.056c0,.248-.005.488-.005.71,0,.755.015,1.328.038,1.629a1.937,1.937,0,0,0,.428,1.11,2.044,2.044,0,0,0,.688.525,4.231,4.231,0,0,0,1.334.351,14.051,14.051,0,0,0,1.649.078h.006c.058,0,.112,0,.17.005-.291.648-.605,1.287-.949,1.915a26.166,26.166,0,0,1-10.951,10.676,38.9,38.9,0,0,1-14.037,4.044l.275-.608c.1-.219.188-.411.265-.573s.136-.288.185-.383a13.161,13.161,0,0,1,1.582-2.069,7.863,7.863,0,0,1,1.6-1.334,3.339,3.339,0,0,1,1.707-.547,2.419,2.419,0,0,1,1.16.3,4.5,4.5,0,0,1,1.324,1.154l1.276-1.042c-.067-.083-.136-.154-.2-.23a5.931,5.931,0,0,0-1.619-1.334,4.072,4.072,0,0,0-1.937-.5,4.979,4.979,0,0,0-2.6.806,10.882,10.882,0,0,0-2.691,2.5,14.157,14.157,0,0,0-1.036,1.482l-.012.022-.012.022c-.118.235-.281.583-.488,1.039-.625,1.372-1.645,3.7-2.789,6.291q-.27.61-.548,1.235c-.527,1.188-1.071,2.4-1.6,3.586-.847,1.87-1.671,3.652-2.373,5.09a23.767,23.767,0,0,1-2.947,4.392,34,34,0,0,1-8.763,7.56,25.48,25.48,0,0,1-13.042,3.72,24.913,24.913,0,0,1-5.03-.521,17.322,17.322,0,0,1-2.114-.577,14.714,14.714,0,0,1-1.834-.757,12.883,12.883,0,0,1-1.893-1.156m3.676-49.468a17.493,17.493,0,0,1-.086,1.945.942.942,0,0,1-.247.535,2.262,2.262,0,0,1-1.107.573,7.36,7.36,0,0,1-1.832.2c-.23,0-.467-.007-.7-.021h-.033a2.075,2.075,0,0,1-1.047-.253,2.223,2.223,0,0,1-.905-1.07,4.425,4.425,0,0,1-.344-1.424c-.02-.239-.036-.723-.035-1.331,0-.117,0-.24,0-.366q3.023.615,6.337,1.212M84.865,62c.025.572.039,1.125.039,1.628a15.929,15.929,0,0,1-.1,2.072,1.465,1.465,0,0,1-.276.679,2.231,2.231,0,0,1-1.1.726,6.377,6.377,0,0,1-2.044.286q-.266,0-.551-.015H80.8a4.349,4.349,0,0,1-2.7-.85,2.419,2.419,0,0,1-1-1.576c-.022-.244-.042-.781-.042-1.46,0-.638.017-1.41.06-2.221q3.744.431,7.748.731m-9.51-.941v.028a14.6,14.6,0,0,1-.112,2.061,1.357,1.357,0,0,1-.289.656,2.452,2.452,0,0,1-1.2.731,7.455,7.455,0,0,1-2.232.29c-.193,0-.393-.005-.6-.014h-.032a5.011,5.011,0,0,1-2.949-.86,3.053,3.053,0,0,1-.78-.793,1.719,1.719,0,0,1-.291-.755c-.024-.238-.045-.775-.045-1.452,0-.342.006-.726.018-1.131,2.706.45,5.543.871,8.51,1.239m20.325,1.41c.039.734.06,1.447.06,2.082a15.8,15.8,0,0,1-.1,2.072,1.2,1.2,0,0,1-.239.586,1.317,1.317,0,0,1-.37.314,3.061,3.061,0,0,1-1,.338,8.588,8.588,0,0,1-1.522.117q-.4,0-.839-.023h-.037c-.636,0-1.205-.015-1.695-.058a4.136,4.136,0,0,1-1.579-.367.852.852,0,0,1-.3-.259.745.745,0,0,1-.117-.365c-.011-.116-.022-.331-.03-.608s-.012-.621-.012-1.01c0-.867.023-1.963.087-3.087q3.744.211,7.7.268m10.74-.184c.017.47.028.923.027,1.342a15.542,15.542,0,0,1-.1,2.031,1.169,1.169,0,0,1-.236.576,1.28,1.28,0,0,1-.362.307,2.988,2.988,0,0,1-.981.332,8.411,8.411,0,0,1-1.492.115c-.259,0-.534-.008-.821-.022h-.037a10.377,10.377,0,0,1-2.837-.262,1.4,1.4,0,0,1-.6-.324.681.681,0,0,1-.186-.444c-.011-.114-.022-.325-.029-.6s-.012-.609-.012-.989c0-.547.01-1.187.033-1.866q3.729-.015,7.632-.2m10.087-.77c.033.656.052,1.292.051,1.861a14.856,14.856,0,0,1-.1,1.961,1.126,1.126,0,0,1-.227.555,1.236,1.236,0,0,1-.35.3,2.9,2.9,0,0,1-.947.321,8.153,8.153,0,0,1-1.442.11q-.376,0-.793-.022h-.035a10.016,10.016,0,0,1-2.741-.253,1.356,1.356,0,0,1-.576-.312.658.658,0,0,1-.179-.428c-.01-.109-.021-.314-.028-.576s-.012-.588-.012-.955c0-.565.011-1.234.037-1.943q3.6-.228,7.34-.616m8.407-1.089c.008.217.013.43.012.631,0,.4-.014.76-.041,1.065a4.872,4.872,0,0,1-.87,2.518,2.437,2.437,0,0,1-.781.681,2.026,2.026,0,0,1-.968.238q-.066,0-.135,0h-.074a4.009,4.009,0,0,1-1.052-.12,1.7,1.7,0,0,1-.959-.613,2.844,2.844,0,0,1-.482-1.394c-.015-.118-.03-.328-.04-.591s-.016-.587-.016-.947c0-.225,0-.468.008-.718q2.666-.326,5.4-.744m6.142,3.081c-.192,0-.391-.007-.6-.019h-.036a7.459,7.459,0,0,1-2.333-.247,1.078,1.078,0,0,1-.478-.3.8.8,0,0,1-.171-.478c-.018-.233-.035-.806-.035-1.541,0-.276,0-.577.007-.894q2.481-.415,5.012-.91a30.174,30.174,0,0,1-1.366,4.391m33.366,75.38-.007.032,0,.033v.009a34.177,34.177,0,0,1-3.207,10.09,19.485,19.485,0,0,1-5.164,6.528,13.436,13.436,0,0,1-3.79,2.093,14.2,14.2,0,0,1-4.792.793,19.747,19.747,0,0,1-4.6-.578,12.163,12.163,0,0,1-6.639-5.319,19.2,19.2,0,0,1-2.876-10.376,24.775,24.775,0,0,1,1.78-9.043c2.032-5.19,3.522-10.756,3.526-15.967a19.6,19.6,0,0,0-2.041-9.169,16.287,16.287,0,0,0-7.082-6.9l-.938-.494-.009.02-.154-.075c-.37-.183-.8-.386-1.267-.586-.23-.106-.477-.2-.721-.3s-.5-.195-.752-.29a19.7,19.7,0,0,0-2.834-.829,9.024,9.024,0,0,0-1.317-.19,9,9,0,0,1,1.221.483,19.178,19.178,0,0,1,2.485,1.418c.215.146.431.286.637.438s.413.291.6.441c.39.291.741.571,1.033.814.133.105.256.209.37.307-1.307,3.347-6.808,19.074-6.808,46.6a230.353,230.353,0,0,0,1.382,24.754c0,.046.017.269.017.63a17.556,17.556,0,0,1-.331,3.32,15.017,15.017,0,0,1-1.066,3.361,10.849,10.849,0,0,1-3.872,4.616,14.284,14.284,0,0,1-8.085,2.1,28.732,28.732,0,0,1-4.816-.373,13.662,13.662,0,0,1-6.768-2.909,9.1,9.1,0,0,1-2.272-3.042,12.421,12.421,0,0,1-1.064-4.6c-.212-3.9-.344-6.934-.464-9.337a46.653,46.653,0,0,0-.718-7.486,8.317,8.317,0,0,0-.825-2.209,9.66,9.66,0,0,0-1.346-1.811l-.184-.2-.019-.006L90.5,155.5l-.144-.158-.185-.186-.416-.412c-.151-.138-.315-.273-.481-.417s-.354-.275-.535-.415-.383-.262-.578-.389-.407-.23-.6-.343-.409-.194-.607-.278a6.629,6.629,0,0,0-1.119-.341c-.168-.03-.32-.059-.457-.07s-.255-.02-.352-.024a2.471,2.471,0,0,0-.3.012,2.443,2.443,0,0,1,.291.072c.091.03.2.065.322.117s.256.115.4.184a6.284,6.284,0,0,1,.911.592c.154.125.308.257.459.4s.3.283.433.446.278.307.4.475.249.315.352.483c.1.151.194.294.28.431a3.881,3.881,0,0,0-.461.186,4.555,4.555,0,0,0-1.361,1.022,8.557,8.557,0,0,0-1.753,3.2,24,24,0,0,0-1.016,5.858,3.624,3.624,0,0,1-.607,1.631c-1.19,1.872-4.243,4.066-9.868,4.068a15.139,15.139,0,0,1-3.127-.372,16.326,16.326,0,0,1-5.093-2,9.065,9.065,0,0,1-1.953-1.615,5.607,5.607,0,0,1-1.166-1.956l-.009-.028-.011-.026c-.015-.039-3.253-8.21-3.253-22.285a107.115,107.115,0,0,1,4.838-31.051,18.977,18.977,0,0,0,2.269.616,26.47,26.47,0,0,0,5.363.555,26.14,26.14,0,0,0,9.734-1.9,33.13,33.13,0,0,0,10.848-7.247,35.119,35.119,0,0,0,3.52-4.04,22.577,22.577,0,0,0,2.132-3.407c.8-1.637,1.745-3.693,2.7-5.814.636-1.412,1.276-2.852,1.88-4.219.544-1.23,1.058-2.4,1.513-3.43a47.334,47.334,0,0,0,9.937-1.9A30.589,30.589,0,0,0,128.5,71.882a30.082,30.082,0,0,0,6.26-13.9l.271-1.5-1.494.307a176.041,176.041,0,0,1-35.5,3.632c-18.378,0-33.49-2.891-44.875-5.369L51.6,54.709l.338,1.567a31.011,31.011,0,0,0,7.124,12.731,37.425,37.425,0,0,0,5.266,4.869,23.564,23.564,0,0,0-5.2,4.8c-.041.051-.08.106-.12.157l-.436-.445A43.73,43.73,0,0,1,48.383,60.753c-.059-.187-.114-.376-.172-.564A69.762,69.762,0,0,1,45.378,40a75.031,75.031,0,0,1,3.849-24.225,33.935,33.935,0,0,1,3.979-8.135,13.86,13.86,0,0,1,2.2-2.506,6.388,6.388,0,0,1,2.145-1.289,13.365,13.365,0,0,1,4.153-.758,7.69,7.69,0,0,1,4.03,1.092A13.371,13.371,0,0,1,68.381,6.3C69.7,7.62,71.042,9.3,72.591,11.162c1.139,1.37,2.391,2.841,3.836,4.345l-.251.041c-.778.146-1.519.32-2.223.481s-1.372.289-1.991.5c-.622.187-1.2.372-1.73.55s-1.023.321-1.441.513c-1.689.722-2.63,1.211-2.63,1.211s1.051-.145,2.847-.533c.9-.172,2-.31,3.225-.551l4.189-.626,1.434-.158.216.21.249-.262.51-.056,1.268-.14,1.314-.088,2.73-.208L87,16.278c.486-.014.974-.051,1.467-.062l1.491-.021c1-.008,2.011-.042,3.032-.029,2.041.036,4.116.033,6.187.162l1.554.071.776.036.773.059,3.075.238c1.019.07,2.024.2,3.021.3s1.982.187,2.944.331c1.929.25,3.8.47,5.557.781l2.569.407,2.383.472c.763.157,1.5.272,2.2.431s1.352.3,1.972.438,1.2.251,1.742.365l1.47.352c1.777.427,2.817.624,2.817.624s-.948-.449-2.651-1.151c-.428-.169-.894-.381-1.417-.566s-1.089-.378-1.7-.576-1.256-.418-1.943-.632c-.283-.086-.578-.167-.875-.247a57.636,57.636,0,0,1,5.856-8.15,32.026,32.026,0,0,1,6.032-5.526,15.929,15.929,0,0,1,3.35-1.758,9.793,9.793,0,0,1,3.388-.645,8.516,8.516,0,0,1,4.979,1.654,14.5,14.5,0,0,1,3.868,4.2A30.9,30.9,0,0,1,154.71,17.84a63.435,63.435,0,0,1,1.263,13.13,93.8,93.8,0,0,1-4.8,29.11,70.484,70.484,0,0,1-5.823,13.045q-.988,1.69-2.065,3.241a39.7,39.7,0,0,1-5.465,6.445c-.289-.07-.667-.16-1.125-.262-1.051-.239-2.445-.528-3.847-.781s-2.805-.473-3.86-.616-1.758-.22-1.758-.22.681.195,1.69.52,2.346.781,3.668,1.269,2.63,1.009,3.6,1.415l.133.056-.005,0,1.413.607h0a40.934,40.934,0,0,1,5.559,3.131,54.015,54.015,0,0,1,8.494,6.889,47.282,47.282,0,0,1,9.46,13.3,45.719,45.719,0,0,1,4.279,19.709,58.412,58.412,0,0,1-1.094,11.046M127.331,32.072l.1.224-.608-.705c-.2-.212-.43-.478-.723-.757s-.623-.588-.993-.905A14.333,14.333,0,0,0,123.84,29a13.605,13.605,0,0,0-1.511-.844,14.317,14.317,0,0,0-1.716-.659,13.183,13.183,0,0,0-1.848-.418,13.888,13.888,0,0,0-1.893-.159,15.115,15.115,0,0,0-1.845.091,14.444,14.444,0,0,0-1.714.3,14.705,14.705,0,0,0-1.5.446c-.23.083-.449.168-.654.258s-.4.17-.583.259-.346.175-.5.256a4.746,4.746,0,0,0-.421.235c-.252.147-.449.27-.578.36l-.206.132.155-.188a5.455,5.455,0,0,1,.468-.512c.1-.109.225-.222.363-.341a5.272,5.272,0,0,1,.456-.372,8.556,8.556,0,0,1,1.186-.776c.225-.133.473-.244.724-.373.259-.109.525-.231.81-.327a11.369,11.369,0,0,1,1.821-.51,12.08,12.08,0,0,1,2.019-.215,12.344,12.344,0,0,1,2.1.136,11.862,11.862,0,0,1,2.045.507,11.705,11.705,0,0,1,1.858.839,10.827,10.827,0,0,1,1.555,1.089,9.7,9.7,0,0,1,1.208,1.179,9.527,9.527,0,0,1,.854,1.126,9.988,9.988,0,0,1,.552.934c.14.262.223.481.292.623M71.8,27.727l.1.187-.149-.149-.175-.179-.248-.228c-.186-.169-.42-.364-.7-.573s-.6-.426-.955-.655-.761-.443-1.192-.657-.9-.406-1.386-.6a15.727,15.727,0,0,0-1.532-.473,13.892,13.892,0,0,0-1.616-.289,11.163,11.163,0,0,0-1.628-.057,8.85,8.85,0,0,0-1.555.206,8.088,8.088,0,0,0-1.4.458l-.318.142-.3.162a5.3,5.3,0,0,0-.557.329c-.183.1-.331.239-.489.349a4.5,4.5,0,0,0-.425.344c-.27.22-.471.439-.657.612l-.544.59.091-.19c.065-.121.141-.307.273-.528a6.844,6.844,0,0,1,.528-.778,7.058,7.058,0,0,1,1.379-1.357l.306-.22.334-.2a6.826,6.826,0,0,1,1.517-.665,8.321,8.321,0,0,1,1.741-.339A10.076,10.076,0,0,1,64.069,23a11.764,11.764,0,0,1,1.775.353,12.2,12.2,0,0,1,1.632.612,10.479,10.479,0,0,1,1.42.782,9.6,9.6,0,0,1,1.16.867,8.158,8.158,0,0,1,.865.859,6.4,6.4,0,0,1,.572.741,4.391,4.391,0,0,1,.306.515" transform="translate(-0.162 0)" fill="#1d1d1b"></path>
            <path id="Path_2495" data-name="Path 2495" d="M126.607,65.228c-.005-.169-.014-.34-.025-.512-.007-.1-.013-.2-.022-.3q-.011-.124-.024-.248c-.019-.176-.04-.353-.066-.531-.007-.046-.014-.093-.021-.139-.032-.206-.067-.412-.107-.62v0c-.046-.234-.1-.465-.157-.694-.011-.043-.022-.084-.033-.126-.053-.2-.109-.405-.17-.6-.006-.018-.011-.036-.017-.054A11.459,11.459,0,0,0,123.8,57.33l0-.005c-.045-.051-.091-.1-.137-.146.071.091.143.18.215.279,0,0-4.582-2.957-6.6,3.1,0,0-1.533-6.86-5.512-2.8a12.981,12.981,0,0,0-2,3.765q-.122.356-.231.728c-.067.228-.126.455-.181.682-.016.064-.03.127-.045.19q-.067.29-.123.579c-.012.067-.025.135-.036.2-.03.17-.057.338-.08.506-.013.094-.025.188-.036.281-.017.137-.03.273-.042.408s-.022.272-.03.406c-.007.116-.012.232-.016.346,0,.1-.005.194-.005.289,0,.065,0,.13,0,.194,0,.17.006.338.016.5,0,.082.013.162.02.242.012.136.023.271.04.4.013.1.03.2.047.3s.033.214.054.315c.016.078.035.15.053.224.025.107.051.212.08.312.023.079.049.153.075.228s.058.17.089.249.066.155.1.23.061.13.093.191c.041.077.083.15.126.22.029.047.059.094.088.138.051.072.1.141.157.206.028.033.055.065.083.1a1.977,1.977,0,0,0,.494.4l.04.02a1.584,1.584,0,0,0,.28.116h0a1.614,1.614,0,0,0,.3.054l.077.005a1.727,1.727,0,0,0,.244-.007c.03,0,.058,0,.088-.007a2.251,2.251,0,0,0,.331-.07c.017-.005.034-.013.051-.019a2.811,2.811,0,0,0,.3-.112c.033-.014.067-.033.1-.049.091-.044.18-.091.272-.145.024-.014.048-.03.072-.045.109-.068.217-.141.326-.223l.012-.009a10.992,10.992,0,0,0,3.279-5.018l.832-2.383.584,2.456v0c.052.218.109.432.17.644.014.048.028.093.043.141.053.177.108.352.167.523l.033.095a10.959,10.959,0,0,0,2.12,3.717l.048.051c.1.107.2.207.3.3.024.022.047.046.071.067.113.105.228.2.344.294.033.026.066.049.1.073.082.061.165.12.247.174.049.033.1.063.148.093s.115.065.173.1c.079.042.158.083.236.118.057.025.112.047.168.07.072.028.144.055.215.078s.133.036.2.051.123.03.183.041c.078.013.155.019.233.025.052,0,.105.011.157.012s.1,0,.156-.005l.08,0c.08-.007.162-.019.241-.034h0a2.388,2.388,0,0,0,.276-.075l.073-.025a2.348,2.348,0,0,0,.225-.1l.043-.02a2.718,2.718,0,0,0,.26-.154l.039-.028a2.949,2.949,0,0,0,.246-.19l.009-.007a3.508,3.508,0,0,0,.259-.252l.007-.008a4.229,4.229,0,0,0,.474-.624l.022-.037c.071-.115.14-.234.206-.361l.007-.015c.054-.1.1-.215.154-.326.024-.054.048-.108.07-.164.029-.071.057-.145.084-.219.043-.116.084-.234.122-.356.008-.025.016-.05.023-.075a11.074,11.074,0,0,0,.431-3.429l0-.087m-11.011-.6a8.489,8.489,0,0,1-.49,1.029c-.965,2.33-2.744,3.8-4.023,3.3-1.3-.514-1.59-2.885-.64-5.3a8.42,8.42,0,0,1,.471-.985,6.755,6.755,0,0,1,2.124-2.918,8.647,8.647,0,0,0-.648,1.159c-.992,2.141-.968,4.261.054,4.735s2.655-.879,3.647-3.021l.023-.054a8.078,8.078,0,0,1-.518,2.054m8.414,5.238c-1.3.442-3.009-1.112-3.862-3.485a8.435,8.435,0,0,1-.439-1.05,8.037,8.037,0,0,1-.42-2.077l.02.054c.889,2.187,2.455,3.615,3.5,3.191s1.169-2.54.281-4.727a8.7,8.7,0,0,0-.592-1.189,6.741,6.741,0,0,1,1.972,2.989,8.324,8.324,0,0,1,.433,1.034c.834,2.453.435,4.808-.892,5.259" transform="translate(-29.978 -15.539)" fill="#3b3c43"></path>
            <path id="Path_2496" data-name="Path 2496" d="M127.229,61.72l-.725.144.725-.144a13.841,13.841,0,0,0-2.606-5.909,7.659,7.659,0,0,0-2-1.8,4.553,4.553,0,0,0-2.335-.693,3.833,3.833,0,0,0-.742.072,4.023,4.023,0,0,0-1.942,1.008,5.223,5.223,0,0,0-.6.662,4.283,4.283,0,0,0-.341-.465,3.29,3.29,0,0,0-1.577-1.05,3.117,3.117,0,0,0-.873-.124,4.068,4.068,0,0,0-2.071.626,8.726,8.726,0,0,0-2.667,2.7,15.569,15.569,0,0,0-1.918,4.215,15.726,15.726,0,0,0-.656,4.361,9.126,9.126,0,0,0,.711,3.764,4.593,4.593,0,0,0,.928,1.363,3.226,3.226,0,0,0,1.366.818,3.126,3.126,0,0,0,.874.124,4,4,0,0,0,1.937-.549,8.176,8.176,0,0,0,2.531-2.391,13.6,13.6,0,0,0,1.114-1.857,12.324,12.324,0,0,0,2.018,3.526,7.4,7.4,0,0,0,1.94,1.668,4.513,4.513,0,0,0,2.24.638,3.772,3.772,0,0,0,.741-.073,4,4,0,0,0,1.849-.923,6.467,6.467,0,0,0,1.778-2.8,11.909,11.909,0,0,0,.6-3.876,15.623,15.623,0,0,0-.3-3.031m-1.611,6.155-.024.075c-.038.122-.079.24-.122.356-.028.074-.055.147-.084.218-.022.056-.046.11-.07.164-.049.112-.1.222-.154.327l-.006.013v0c-.065.126-.134.246-.206.361l-.022.037a4.26,4.26,0,0,1-.474.623l-.007.008a3.019,3.019,0,0,1-.259.252l0,0-.006.005a3.027,3.027,0,0,1-.247.19l-.039.027a2.566,2.566,0,0,1-.259.154l-.043.02a2.358,2.358,0,0,1-.225.1l-.073.026a2.388,2.388,0,0,1-.276.075h0a2.261,2.261,0,0,1-.241.034c-.026,0-.053,0-.08,0-.044,0-.089.007-.133.007l-.022,0c-.051,0-.1-.008-.157-.012-.078-.006-.154-.011-.233-.024-.061-.01-.122-.026-.183-.041s-.132-.031-.2-.051-.144-.05-.215-.078-.112-.043-.169-.069c-.078-.036-.157-.076-.235-.118-.032-.017-.062-.03-.094-.048s-.052-.033-.078-.049c-.05-.03-.1-.061-.149-.093-.082-.054-.165-.113-.246-.175-.033-.025-.067-.047-.1-.072-.115-.091-.23-.189-.344-.294-.024-.022-.047-.045-.07-.067q-.152-.144-.3-.3l-.048-.051a8.757,8.757,0,0,1-.925-1.212,12.1,12.1,0,0,1-1.195-2.506c-.012-.031-.022-.063-.033-.094q-.087-.258-.167-.523c-.014-.047-.029-.094-.042-.141-.061-.212-.119-.425-.17-.644v0l-.583-2.456h0l-.832,2.383a12.3,12.3,0,0,1-2.4,4.216,6.411,6.411,0,0,1-.883.8l-.012.009c-.109.081-.218.156-.326.222l-.072.046c-.028.016-.056.036-.083.051-.064.036-.125.063-.188.093-.033.017-.067.035-.1.049a2.855,2.855,0,0,1-.3.112c-.017.005-.035.014-.051.018a2.171,2.171,0,0,1-.331.07c-.03,0-.059,0-.088.007-.054,0-.109.012-.161.012-.028,0-.055,0-.083-.006l-.076-.005a1.652,1.652,0,0,1-.3-.054h0a1.614,1.614,0,0,1-.28-.115l-.04-.021a1.883,1.883,0,0,1-.42-.314c-.025-.025-.049-.059-.074-.086s-.056-.063-.083-.1c-.053-.064-.105-.132-.156-.206-.03-.044-.06-.091-.089-.138-.043-.071-.086-.143-.126-.22-.032-.062-.062-.126-.093-.192s-.068-.149-.1-.229-.061-.165-.09-.25c-.018-.053-.039-.1-.056-.157-.007-.022-.012-.049-.019-.071-.029-.1-.055-.207-.08-.312-.018-.075-.037-.146-.053-.224-.021-.1-.037-.209-.054-.315s-.034-.2-.047-.3c-.017-.132-.028-.267-.04-.4-.007-.08-.015-.159-.02-.241-.01-.164-.014-.332-.016-.5,0-.046,0-.089,0-.136,0-.019,0-.039,0-.059,0-.1,0-.192.006-.289,0-.114.009-.23.015-.346.008-.135.017-.27.03-.407s.025-.27.042-.408c.012-.093.023-.186.037-.28q.035-.251.08-.506.017-.1.037-.2c.036-.191.078-.385.123-.579.015-.063.03-.126.045-.189.055-.226.115-.454.181-.682q.108-.371.232-.728a12.963,12.963,0,0,1,2-3.765l-.017.017c-.038.038-.073.07-.11.11,0,0,2.72-4.009,5.511-1.345a5.18,5.18,0,0,1,.393.414,4.361,4.361,0,0,1,.381-.371c.912-.8,3.324-2.381,5.693.549.06.064.12.132.178.2l0,0A9.07,9.07,0,0,1,124.2,57.8a12.555,12.555,0,0,1,1.2,2.733l.017.054q.09.3.17.6l.033.126c.057.228.11.459.157.694v0c.041.207.075.414.107.619l.022.14c.025.178.047.355.066.531.009.083.016.165.023.248.009.1.017.2.023.3.012.173.02.343.025.512l0,.086c0,.1.007.2.007.305a10.658,10.658,0,0,1-.437,3.124m-1.665-5.045c.834,2.453.436,4.808-.892,5.259-1.126.383-2.556-.731-3.473-2.574a8.446,8.446,0,0,1-.44-1.051,8.063,8.063,0,0,1-.42-2.076l.02.054c.889,2.186,2.455,3.615,3.5,3.191s1.168-2.54.28-4.727a8.643,8.643,0,0,0-.592-1.188,6.741,6.741,0,0,1,1.972,2.989c.014.041.032.08.046.122m-8.423-1.069.023-.054a8.062,8.062,0,0,1-.518,2.054,8.649,8.649,0,0,1-.489,1.029c-1,1.8-2.486,2.841-3.592,2.4-1.3-.514-1.59-2.885-.64-5.3.012-.032.027-.062.04-.093a6.76,6.76,0,0,1,2.124-2.918,8.637,8.637,0,0,0-.648,1.158c-.992,2.142-.968,4.262.054,4.735s2.655-.879,3.647-3.02" transform="translate(-29.417 -14.671)" fill="#1d1d1b"></path>
            <path id="Path_2497" data-name="Path 2497" d="M115.464,65.264c-.965,2.33-2.744,3.8-4.023,3.3-1.3-.514-1.59-2.885-.64-5.3a8.417,8.417,0,0,1,.471-.985c-.013.032-.028.062-.041.094-.95,2.41-.663,4.782.641,5.295,1.106.436,2.588-.607,3.591-2.4m9.8-1.05a8.326,8.326,0,0,0-.433-1.034c.015.041.031.081.046.123.834,2.453.435,4.808-.892,5.259-1.126.383-2.556-.731-3.474-2.575.852,2.373,2.56,3.927,3.862,3.485,1.326-.451,1.726-2.806.892-5.259m-1.031-7.151c-.072-.1-.143-.188-.215-.279l-.041-.054c-2.369-2.93-4.781-1.347-5.693-.548a4.452,4.452,0,0,0-.382.371,5.07,5.07,0,0,0-.392-.415c-2.791-2.664-5.512,1.345-5.512,1.345.038-.04.073-.072.11-.11l.017-.017c3.979-4.057,5.512,2.8,5.512,2.8,2.014-6.054,6.6-3.1,6.6-3.1" transform="translate(-30.336 -15.144)" fill="#53545a"></path>
            <path id="Path_2498" data-name="Path 2498" d="M166.838,62.448c-.031.07-.066.141-.1.212a9.477,9.477,0,0,1-1.929,2.729,12.13,12.13,0,0,1-2.82,2.09,13.377,13.377,0,0,1-3.381,1.276,13.191,13.191,0,0,1-1.8.3c-.3.034-.609.044-.909.057-.336.009-.614.009-.929,0a14.019,14.019,0,0,1-3.6-.548,9.432,9.432,0,0,1-3.109-1.547,7.419,7.419,0,0,1-1.507-1.5c.174.077.354.148.54.22.2.08.417.151.629.22a12.9,12.9,0,0,0,1.288.311c.207.036.409.071.6.093s.377.035.544.048c.338.02.617.027.813.025s.307,0,.307,0l-.3-.044c-.188-.031-.46-.076-.78-.143s-.687-.162-1.073-.283-.78-.278-1.166-.449l-.046-.022c5.733,2.184,15.251,1.673,18.725-3.043" transform="translate(-40.384 -17.184)" fill="#265480"></path>
            <path id="Path_2499" data-name="Path 2499" d="M144.052,51.482a2.155,2.155,0,0,1,.128-.217,3.672,3.672,0,0,1,.523-.633,4.378,4.378,0,0,1,1.409-.934.821.821,0,0,0,.438-.4l.038-.08c.078-.162.159-.321.244-.479A12.358,12.358,0,0,1,150,48.261a6.387,6.387,0,0,1,2.775-3.334,13.5,13.5,0,0,1,6.036.189,11.815,11.815,0,0,1,3.27,1.408,10,10,0,0,1,2.55,2.285,9.693,9.693,0,0,1,1.273,2.179,11.61,11.61,0,0,1,.539,2.847,13.051,13.051,0,0,0-1.737-1.231,18.167,18.167,0,0,0-3.175-1.45,26.4,26.4,0,0,0-3.408-.945,28.958,28.958,0,0,0-3.535-.513,22.065,22.065,0,0,0-3.61-.028,12.6,12.6,0,0,0-3.574.745,5.277,5.277,0,0,0-1.6.928,2.362,2.362,0,0,0-.841,1.581,1.723,1.723,0,0,0,0,.22c0,.037,0,.071,0,.112v.008a1.957,1.957,0,0,1-.91-1.779m1.088,3.269-.026.047-.024-.01c-.038.028-.091.07-.154.122a3.844,3.844,0,0,0-.435.437,3.823,3.823,0,0,1,.7-.309l-.048-.3h0l-.014.01m21.68.794v-.011a13.851,13.851,0,0,1-1.806,1.177,16.094,16.094,0,0,1-2.661,1.135c-.524.178-1.057.327-1.6.457a20.061,20.061,0,0,1-5.161.65,24.642,24.642,0,0,1-4.8-.368,16.925,16.925,0,0,1-2.807-.776,9.034,9.034,0,0,1-1.32-.624,7.184,7.184,0,0,1-.618-.4,5.048,5.048,0,0,1-.539-.456,2.264,2.264,0,0,0-1.033.582,1.5,1.5,0,0,0-.36.646A1.937,1.937,0,0,0,144.4,58.6a2.469,2.469,0,0,0,.249.346l.165.122c.146.112.357.265.608.433s.558.371.9.562c.168.1.347.192.531.289.167.089.344.168.52.251,5.733,2.184,15.25,1.673,18.724-3.043.079-.178.157-.355.241-.533a7.183,7.183,0,0,0,.338-.757,2.216,2.216,0,0,0,.119-.379c0-.029.008-.057.01-.088l.017-.214,0-.039Z" transform="translate(-39.638 -12.293)" fill="#5a97d1"></path>
            <path id="Path_2500" data-name="Path 2500" d="M165.283,58.4a15.579,15.579,0,0,1-1.888.816c-.207.074-.415.144-.625.209a22.864,22.864,0,0,1-5.513.975,25.033,25.033,0,0,1-5.607-.29,16.477,16.477,0,0,1-2.686-.681,7.011,7.011,0,0,1-2.312-1.262c-.015-.256-.026-.515-.054-.763s-.031-.511-.064-.761c-.026-.223-.03-.447-.044-.667,0-.027,0-.055-.005-.082-.009-.12-.016-.241-.017-.375l-.005-.1,0-.074a.955.955,0,0,1,.011-.152,1.473,1.473,0,0,1,.461-.889,2,2,0,0,1,.166-.154,4.491,4.491,0,0,1,1.333-.681,12.415,12.415,0,0,1,3.271-.615,27.134,27.134,0,0,1,10.14,1.28,19.74,19.74,0,0,1,3.071,1.31c.094.05.184.106.277.157a6.5,6.5,0,0,1,.09,2.795" transform="translate(-40.303 -14.529)" fill="#ffeb3b"></path>
            <path id="Path_2501" data-name="Path 2501" d="M153.833,45.023a6.383,6.383,0,0,0-2.775,3.334,12.357,12.357,0,0,0-3.168.482,5.945,5.945,0,0,1,1.68-1.988,9.336,9.336,0,0,1,3.089-1.545c.383-.115.777-.2,1.174-.283" transform="translate(-40.696 -12.389)" fill="#3477bb"></path>
          </g>
        </g>
        <g id="Group_1734" data-name="Group 1734" transform="translate(105.634 37.724)">
          <g id="Group_1733" data-name="Group 1733" clip-path="url(#clip-path-4)">
            <path id="Path_2502" data-name="Path 2502" d="M150.8,60.3a4.535,4.535,0,0,0,4.543,4.631,4.729,4.729,0,0,0,4.437-4.886,4.534,4.534,0,0,0-4.542-4.632A4.73,4.73,0,0,0,150.8,60.3" transform="translate(-147.131 -52.973)" fill="#1d1d1b"></path>
            <path id="Path_2503" data-name="Path 2503" d="M150.149,60.116a5.525,5.525,0,0,1,1.424-3.794,4.867,4.867,0,0,1,3.481-1.639,5.007,5.007,0,0,1,5.022,5.151,5.521,5.521,0,0,1-1.421,3.792,4.871,4.871,0,0,1-3.482,1.64c-.157,0-.313,0-.467-.01a5.039,5.039,0,0,1-4.556-5.14m4.916-4.369a3.969,3.969,0,0,0-2.837,1.33,4.389,4.389,0,0,0-1.134,3.012A4.024,4.024,0,0,0,155.16,64.2,3.968,3.968,0,0,0,158,62.872a4.39,4.39,0,0,0,1.133-3.011,4.045,4.045,0,0,0-3.681-4.106c-.126-.009-.254-.012-.383-.008" transform="translate(-146.951 -52.771)" fill="#1d1d1b"></path>
            <path id="Path_2504" data-name="Path 2504" d="M153.152,61.086A2.569,2.569,0,0,0,155.71,63.9a3.027,3.027,0,0,0,2.911-2.851,2.566,2.566,0,0,0-2.558-2.814,3.03,3.03,0,0,0-2.912,2.85" transform="translate(-147.776 -53.749)" fill="#1d1d1b"></path>
            <path id="Path_2505" data-name="Path 2505" d="M155.233,61.614a1.211,1.211,0,0,0,1.218,1.257,1.308,1.308,0,0,0,1.242-1.312,1.213,1.213,0,0,0-1.218-1.258,1.307,1.307,0,0,0-1.241,1.313" transform="translate(-148.35 -54.317)" fill="#fff"></path>
          </g>
        </g>
        <g id="Group_1736" data-name="Group 1736">
          <g id="Group_1735" data-name="Group 1735" clip-path="url(#clip-path-3)">
            <path id="Path_2507" data-name="Path 2507" d="M167.159,54.735l0-.107-.014-.433a12.918,12.918,0,0,0-.62-3.407,10.576,10.576,0,0,0-1.642-3.12,10.782,10.782,0,0,0-2.69-2.481,12.647,12.647,0,0,0-3.479-1.555,14.537,14.537,0,0,0-7.772-.013,10.51,10.51,0,0,0-3.481,1.675A6.931,6.931,0,0,0,145.2,48.11a5.449,5.449,0,0,0-1.651,1.2,4.527,4.527,0,0,0-.61.81,3.252,3.252,0,0,0-.221.448,2.775,2.775,0,0,0-.149.471,2.457,2.457,0,0,0-.043.28c0,.017-.009.032-.012.048a2.637,2.637,0,0,0-.058.488,2.241,2.241,0,0,0,.057.486,1.9,1.9,0,0,0,.17.463,2.1,2.1,0,0,0,.281.418,2.824,2.824,0,0,0,.359.362,3.755,3.755,0,0,0,.416.31,5.551,5.551,0,0,0,.913.457l.025.01.025-.047.013-.022,0,.013.047.3a3.824,3.824,0,0,0-.7.309l-.042.022a3.081,3.081,0,0,0-.724.58,2.434,2.434,0,0,0-.615,1.382,2.259,2.259,0,0,0-.075.5,2.743,2.743,0,0,0,.422,1.479,3.792,3.792,0,0,0,1.033,1.071,10.217,10.217,0,0,0,5.786,4.3,13.545,13.545,0,0,0,1.891.419,16.826,16.826,0,0,0,1.94.189,14.737,14.737,0,0,0,3.9-.339,14.375,14.375,0,0,0,3.637-1.353,13.128,13.128,0,0,0,3.054-2.238,10.381,10.381,0,0,0,2.117-2.965,8.255,8.255,0,0,0,.56-1.687c.034-.142.058-.288.079-.437,0-.023.005-.046.009-.07.016-.086.034-.17.046-.258a3.865,3.865,0,0,0,.056-.433l.017-.215.005-.054a.312.312,0,0,0,0-.07m-16.97,8.5a9.432,9.432,0,0,1-3.109-1.547,7.422,7.422,0,0,1-1.507-1.5c.174.077.354.149.539.221.2.08.417.151.63.22a12.845,12.845,0,0,0,1.288.311c.207.036.409.07.6.093s.377.035.544.048c.337.02.616.027.813.025l.307,0-.3-.045c-.188-.03-.46-.075-.779-.143s-.687-.162-1.073-.283-.78-.278-1.166-.449l-.046-.022c-.175-.083-.352-.162-.52-.251-.183-.1-.362-.189-.53-.289-.339-.191-.644-.39-.9-.562s-.462-.321-.608-.433l-.165-.122a2.416,2.416,0,0,1-.25-.346,1.937,1.937,0,0,1-.275-1.041,1.5,1.5,0,0,1,.361-.646,2.262,2.262,0,0,1,1.032-.582,5.05,5.05,0,0,0,.539.456,7.3,7.3,0,0,0,.618.4,9.077,9.077,0,0,0,1.321.624,16.968,16.968,0,0,0,2.807.776,24.642,24.642,0,0,0,4.8.368c.341-.008.683-.02,1.023-.043a24.656,24.656,0,0,0,4.138-.607c.539-.13,1.071-.28,1.6-.457a16.13,16.13,0,0,0,2.661-1.135,13.8,13.8,0,0,0,1.806-1.177v.014l0,.039-.017.214c0,.03-.007.059-.01.088a2.216,2.216,0,0,1-.119.379,7.183,7.183,0,0,1-.338.757c-.083.178-.162.355-.241.533-.032.07-.066.141-.1.212a9.494,9.494,0,0,1-1.929,2.729,12.119,12.119,0,0,1-2.821,2.09,13.372,13.372,0,0,1-3.381,1.276,13.2,13.2,0,0,1-1.8.3c-.3.035-.609.044-.908.058-.337.009-.614.008-.93,0a14.013,14.013,0,0,1-3.6-.548m-6.739-11.4a1.323,1.323,0,0,1-.022-.323v-.013a2.093,2.093,0,0,1,.125-.339c.019-.04.04-.08.061-.119a2.155,2.155,0,0,1,.128-.217,3.672,3.672,0,0,1,.523-.633,4.386,4.386,0,0,1,1.409-.934.816.816,0,0,0,.438-.4l.038-.08c.078-.162.159-.321.244-.479a5.96,5.96,0,0,1,1.68-1.987,9.348,9.348,0,0,1,3.09-1.546c.383-.115.776-.2,1.173-.283a13.5,13.5,0,0,1,6.036.189,11.82,11.82,0,0,1,3.269,1.408,9.985,9.985,0,0,1,2.55,2.285,9.694,9.694,0,0,1,1.273,2.179q.158.373.288.756a11.876,11.876,0,0,1,.519,2.317c-.086-.078-.178-.151-.267-.225a12.976,12.976,0,0,0-1.737-1.231,18.2,18.2,0,0,0-3.176-1.45,26.4,26.4,0,0,0-3.408-.945,28.937,28.937,0,0,0-3.535-.513,22.065,22.065,0,0,0-3.61-.028,12.6,12.6,0,0,0-3.574.745,5.273,5.273,0,0,0-1.6.928,2.359,2.359,0,0,0-.841,1.581,1.6,1.6,0,0,0,0,.22c0,.037,0,.071,0,.112v.008l.008.089.007.063c-.065-.025-.132-.052-.2-.081A1.656,1.656,0,0,1,144,52.69a1.379,1.379,0,0,1-.261-.259,1.323,1.323,0,0,1-.183-.285,1.266,1.266,0,0,1-.106-.3m1.932,1.379c-.009-.12-.016-.241-.018-.375l-.005-.1,0-.074a1.156,1.156,0,0,1,.011-.152,1.473,1.473,0,0,1,.461-.888,2,2,0,0,1,.166-.155,4.517,4.517,0,0,1,1.333-.681,12.391,12.391,0,0,1,3.271-.614,27.106,27.106,0,0,1,10.14,1.279,19.7,19.7,0,0,1,3.071,1.311c.094.05.184.105.277.157a6.5,6.5,0,0,1,.09,2.794l0,.01a15.908,15.908,0,0,1-1.887.807c-.207.073-.415.144-.624.209a22.9,22.9,0,0,1-5.514.974,25.038,25.038,0,0,1-5.607-.29,16.56,16.56,0,0,1-2.685-.681,7.021,7.021,0,0,1-2.313-1.263c-.014-.256-.025-.514-.054-.763s-.032-.511-.065-.761c-.026-.222-.03-.447-.044-.666,0-.028,0-.056,0-.083" transform="translate(-39.201 -11.859)" fill="#1d1d1b"></path>
            <path id="Path_2508" data-name="Path 2508" d="M167.159,54.735l0-.107-.014-.433a12.918,12.918,0,0,0-.62-3.407,10.576,10.576,0,0,0-1.642-3.12,10.782,10.782,0,0,0-2.69-2.481,12.647,12.647,0,0,0-3.479-1.555,14.537,14.537,0,0,0-7.772-.013,10.51,10.51,0,0,0-3.481,1.675A6.931,6.931,0,0,0,145.2,48.11a5.449,5.449,0,0,0-1.651,1.2,4.527,4.527,0,0,0-.61.81,3.252,3.252,0,0,0-.221.448,2.775,2.775,0,0,0-.149.471,2.457,2.457,0,0,0-.043.28c0,.017-.009.032-.012.048a2.637,2.637,0,0,0-.058.488,2.241,2.241,0,0,0,.057.486,1.9,1.9,0,0,0,.17.463,2.1,2.1,0,0,0,.281.418,2.824,2.824,0,0,0,.359.362,3.755,3.755,0,0,0,.416.31,5.551,5.551,0,0,0,.913.457l.025.01.025-.047.013-.022,0,.013.047.3a3.824,3.824,0,0,0-.7.309l-.042.022a3.081,3.081,0,0,0-.724.58,2.434,2.434,0,0,0-.615,1.382,2.259,2.259,0,0,0-.075.5,2.743,2.743,0,0,0,.422,1.479,3.792,3.792,0,0,0,1.033,1.071,10.217,10.217,0,0,0,5.786,4.3,13.545,13.545,0,0,0,1.891.419,16.826,16.826,0,0,0,1.94.189,14.737,14.737,0,0,0,3.9-.339,14.375,14.375,0,0,0,3.637-1.353,13.128,13.128,0,0,0,3.054-2.238,10.381,10.381,0,0,0,2.117-2.965,8.255,8.255,0,0,0,.56-1.687c.034-.142.058-.288.079-.437,0-.023.005-.046.009-.07.016-.086.034-.17.046-.258a3.865,3.865,0,0,0,.056-.433l.017-.215.005-.054A.312.312,0,0,0,167.159,54.735Zm-16.97,8.5a9.432,9.432,0,0,1-3.109-1.547,7.422,7.422,0,0,1-1.507-1.5c.174.077.354.149.539.221.2.08.417.151.63.22a12.845,12.845,0,0,0,1.288.311c.207.036.409.07.6.093s.377.035.544.048c.337.02.616.027.813.025l.307,0-.3-.045c-.188-.03-.46-.075-.779-.143s-.687-.162-1.073-.283-.78-.278-1.166-.449l-.046-.022c-.175-.083-.352-.162-.52-.251-.183-.1-.362-.189-.53-.289-.339-.191-.644-.39-.9-.562s-.462-.321-.608-.433l-.165-.122a2.416,2.416,0,0,1-.25-.346,1.937,1.937,0,0,1-.275-1.041,1.5,1.5,0,0,1,.361-.646,2.262,2.262,0,0,1,1.032-.582,5.05,5.05,0,0,0,.539.456,7.3,7.3,0,0,0,.618.4,9.077,9.077,0,0,0,1.321.624,16.968,16.968,0,0,0,2.807.776,24.642,24.642,0,0,0,4.8.368c.341-.008.683-.02,1.023-.043a24.656,24.656,0,0,0,4.138-.607c.539-.13,1.071-.28,1.6-.457a16.13,16.13,0,0,0,2.661-1.135,13.8,13.8,0,0,0,1.806-1.177v.014l0,.039-.017.214c0,.03-.007.059-.01.088a2.216,2.216,0,0,1-.119.379,7.183,7.183,0,0,1-.338.757c-.083.178-.162.355-.241.533-.032.07-.066.141-.1.212a9.494,9.494,0,0,1-1.929,2.729,12.119,12.119,0,0,1-2.821,2.09,13.372,13.372,0,0,1-3.381,1.276,13.2,13.2,0,0,1-1.8.3c-.3.035-.609.044-.908.058-.337.009-.614.008-.93,0A14.013,14.013,0,0,1,150.189,63.238Zm-6.739-11.4a1.323,1.323,0,0,1-.022-.323v-.013a2.093,2.093,0,0,1,.125-.339c.019-.04.04-.08.061-.119a2.155,2.155,0,0,1,.128-.217,3.672,3.672,0,0,1,.523-.633,4.386,4.386,0,0,1,1.409-.934.816.816,0,0,0,.438-.4l.038-.08c.078-.162.159-.321.244-.479a5.96,5.96,0,0,1,1.68-1.987,9.348,9.348,0,0,1,3.09-1.546c.383-.115.776-.2,1.173-.283a13.5,13.5,0,0,1,6.036.189,11.82,11.82,0,0,1,3.269,1.408,9.985,9.985,0,0,1,2.55,2.285,9.694,9.694,0,0,1,1.273,2.179q.158.373.288.756a11.876,11.876,0,0,1,.519,2.317c-.086-.078-.178-.151-.267-.225a12.976,12.976,0,0,0-1.737-1.231,18.2,18.2,0,0,0-3.176-1.45,26.4,26.4,0,0,0-3.408-.945,28.937,28.937,0,0,0-3.535-.513,22.065,22.065,0,0,0-3.61-.028,12.6,12.6,0,0,0-3.574.745,5.273,5.273,0,0,0-1.6.928,2.359,2.359,0,0,0-.841,1.581,1.6,1.6,0,0,0,0,.22c0,.037,0,.071,0,.112v.008l.008.089.007.063c-.065-.025-.132-.052-.2-.081A1.656,1.656,0,0,1,144,52.69a1.379,1.379,0,0,1-.261-.259,1.323,1.323,0,0,1-.183-.285A1.266,1.266,0,0,1,143.45,51.842Zm1.932,1.379c-.009-.12-.016-.241-.018-.375l-.005-.1,0-.074a1.156,1.156,0,0,1,.011-.152,1.473,1.473,0,0,1,.461-.888,2,2,0,0,1,.166-.155,4.517,4.517,0,0,1,1.333-.681,12.391,12.391,0,0,1,3.271-.614,27.106,27.106,0,0,1,10.14,1.279,19.7,19.7,0,0,1,3.071,1.311c.094.05.184.105.277.157a6.5,6.5,0,0,1,.09,2.794l0,.01a15.908,15.908,0,0,1-1.887.807c-.207.073-.415.144-.624.209a22.9,22.9,0,0,1-5.514.974,25.038,25.038,0,0,1-5.607-.29,16.56,16.56,0,0,1-2.685-.681,7.021,7.021,0,0,1-2.313-1.263c-.014-.256-.025-.514-.054-.763s-.032-.511-.065-.761c-.026-.222-.03-.447-.044-.666C145.386,53.275,145.385,53.247,145.383,53.22Z" transform="translate(-39.201 -11.859)" fill="none" stroke="#1d1d1b" stroke-miterlimit="10" stroke-width="0.475"></path>
            <path id="Path_2509" data-name="Path 2509" d="M92.872,60.28a10.079,10.079,0,0,1-1.321,1.853,11.487,11.487,0,0,1-2.573,2.121,11.833,11.833,0,0,1-3.087,1.322,11.369,11.369,0,0,1-1.644.325c-.277.039-.557.054-.831.072-.308.015-.561.018-.85.016a11.783,11.783,0,0,1-3.293-.484,8.209,8.209,0,0,1-2.844-1.484,6.791,6.791,0,0,1-1.209-1.239c.165.075.337.145.512.216s.382.141.576.207a11.094,11.094,0,0,0,1.179.284c.19.032.375.062.549.082s.344.028.5.036c.308.014.563.015.742.011l.138-.005c4.771.744,10.464-.116,13.458-3.334" transform="translate(-20.699 -16.588)" fill="#265480"></path>
            <path id="Path_2510" data-name="Path 2510" d="M72.536,49.558a1.3,1.3,0,0,1-.167-.281,1.352,1.352,0,0,1-.1-.3,1.461,1.461,0,0,1-.02-.32,2.008,2.008,0,0,1,.05-.336,2.047,2.047,0,0,1,.115-.343,2.416,2.416,0,0,1,.171-.337,3.739,3.739,0,0,1,.476-.637,4.1,4.1,0,0,1,1.285-.95.8.8,0,0,0,.259-.191A10.185,10.185,0,0,1,77.8,45.22a6.555,6.555,0,0,1,4.516-4.281,11.291,11.291,0,0,1,3.631.36,10.2,10.2,0,0,1,2.991,1.343,9.241,9.241,0,0,1,2.336,2.227,9.964,9.964,0,0,1,1.434,2.886,13.15,13.15,0,0,1,.554,3.12,11.191,11.191,0,0,0-2.01-1.587A15.664,15.664,0,0,0,88.343,47.9a22.085,22.085,0,0,0-3.117-.882A24.34,24.34,0,0,0,82,46.568a18.532,18.532,0,0,0-3.3.031,10.886,10.886,0,0,0-3.265.8,4.83,4.83,0,0,0-1.461.947,2.454,2.454,0,0,0-.765,1.582,1.161,1.161,0,0,0,0,.133l-.113-.048a1.493,1.493,0,0,1-.314-.2,1.224,1.224,0,0,1-.239-.252m16.575,4.972c-.481.185-.971.343-1.465.481a17.075,17.075,0,0,1-4.711.728,20.708,20.708,0,0,1-4.382-.286,14.382,14.382,0,0,1-2.567-.724,7.772,7.772,0,0,1-1.208-.6,6.178,6.178,0,0,1-.565-.386,4.683,4.683,0,0,1-.51-.459l-.062-.068a.176.176,0,0,1-.047-.1l-.048-.317a2.338,2.338,0,0,0-.4.191,1.788,1.788,0,0,0-.27.246,1.587,1.587,0,0,0-.378.97,2.029,2.029,0,0,0,.254,1.032,2.6,2.6,0,0,0,.5.641l.065.051c.134.109.328.256.557.418s.511.357.822.541c.154.1.317.184.485.277s.344.174.518.259a10.714,10.714,0,0,0,1.068.425c.353.113.688.2.981.261s.541.1.713.126l.275.04-.143.005c4.771.744,10.465-.116,13.458-3.334a8.6,8.6,0,0,0,.436-.888c.1-.249.2-.5.307-.744a7.342,7.342,0,0,0,.307-.757,2.331,2.331,0,0,0,.111-.388c0-.015.006-.032.009-.047a12.818,12.818,0,0,1-1.683,1.229,14.494,14.494,0,0,1-2.429,1.171" transform="translate(-19.882 -11.26)" fill="#5a97d1"></path>
            <path id="Path_2511" data-name="Path 2511" d="M83.208,40.947a6.554,6.554,0,0,0-4.515,4.281,10.188,10.188,0,0,0-3.192.646.774.774,0,0,0,.141-.21l.034-.079a7.661,7.661,0,0,1,.712-1.329A6.06,6.06,0,0,1,77.43,43.1a8.461,8.461,0,0,1,2.82-1.586,11.22,11.22,0,0,1,2.958-.571" transform="translate(-20.776 -11.268)" fill="#3477bb"></path>
            <path id="Path_2512" data-name="Path 2512" d="M93.694,54a11.69,11.69,0,0,1-1.319.98q-.269.172-.547.33a14.336,14.336,0,0,1-1.727.833c-.187.075-.376.148-.566.216A19.584,19.584,0,0,1,84.5,57.417a21,21,0,0,1-5.126-.2,13.911,13.911,0,0,1-2.456-.631A6.154,6.154,0,0,1,74.8,55.376c-.014-.254-.025-.51-.051-.757s-.03-.507-.061-.755-.027-.5-.046-.742c-.007-.119-.014-.239-.017-.372l-.005-.1,0-.072a1.16,1.16,0,0,1,.009-.152,1.6,1.6,0,0,1,.57-1.045,4.11,4.11,0,0,1,1.217-.7,10.632,10.632,0,0,1,2.988-.663,22.836,22.836,0,0,1,9.27,1.1,16.933,16.933,0,0,1,2.809,1.25c.086.049.168.1.253.151.118.07.237.138.352.211.169.109.334.223.5.339l.063.044a9.255,9.255,0,0,1,1,.843l.014.014.017.017.007.006" transform="translate(-20.534 -13.741)" fill="#ffeb3b"></path>
          </g>
        </g>
        <g id="Group_1738" data-name="Group 1738" transform="translate(53.607 35.658)">
          <g id="Group_1737" data-name="Group 1737" clip-path="url(#clip-path-6)">
            <path id="Path_2513" data-name="Path 2513" d="M78.406,56.412c.032,2.608,1.9,4.633,4.163,4.521s4.076-2.315,4.045-4.922-1.9-4.634-4.163-4.523-4.077,2.315-4.044,4.924" transform="translate(-75.183 -49.825)" fill="#1d1d1b"></path>
            <path id="Path_2514" data-name="Path 2514" d="M78.113,57.427A5.493,5.493,0,0,1,79,53.763a4.345,4.345,0,0,1,2.865-1.921c2.4-.4,4.513,1.469,4.8,4.15a5.486,5.486,0,0,1-.891,3.662,4.341,4.341,0,0,1-2.864,1.922,3.886,3.886,0,0,1-.4.046,4.356,4.356,0,0,1-4.4-4.2M82.367,52.1a3.582,3.582,0,0,0-2.589,1.367,4.64,4.64,0,0,0-1.03,3.009,3.774,3.774,0,0,0,3.726,4.014,3.576,3.576,0,0,0,2.588-1.366,4.647,4.647,0,0,0,1.029-3.008A3.832,3.832,0,0,0,82.717,52.1a3.312,3.312,0,0,0-.35,0" transform="translate(-75.093 -49.909)" fill="#1d1d1b"></path>
            <path id="Path_2515" data-name="Path 2515" d="M80.554,57.16A2.431,2.431,0,0,0,82.9,59.912a2.942,2.942,0,0,0,2.654-2.877,2.429,2.429,0,0,0-2.345-2.751,2.944,2.944,0,0,0-2.654,2.876" transform="translate(-75.773 -50.595)" fill="#1d1d1b"></path>
            <path id="Path_2516" data-name="Path 2516" d="M82.456,57.659a1.139,1.139,0,0,0,1.116,1.227A1.279,1.279,0,0,0,84.7,57.564a1.139,1.139,0,0,0-1.116-1.228,1.28,1.28,0,0,0-1.131,1.324" transform="translate(-76.297 -51.16)" fill="#fff"></path>
          </g>
        </g>
        <g id="Group_1740" data-name="Group 1740">
          <g id="Group_1739" data-name="Group 1739" clip-path="url(#clip-path-3)">
            <path id="Path_2518" data-name="Path 2518" d="M93.743,51.158l0-.109-.014-.439a14.1,14.1,0,0,0-.582-3.449,10.864,10.864,0,0,0-1.532-3.138,10.156,10.156,0,0,0-2.5-2.471,11.059,11.059,0,0,0-3.237-1.52,12.43,12.43,0,0,0-7.224.122,9.638,9.638,0,0,0-3.231,1.761,7.142,7.142,0,0,0-2.093,2.9,5.251,5.251,0,0,0-1.532,1.25,4.591,4.591,0,0,0-.564.834,3.4,3.4,0,0,0-.206.457,3.134,3.134,0,0,0-.137.481,3.005,3.005,0,0,0-.053.5,2.421,2.421,0,0,0,.054.493,1.981,1.981,0,0,0,.16.468,2.018,2.018,0,0,0,.26.42,2.632,2.632,0,0,0,.335.361,3.334,3.334,0,0,0,.388.308,4.446,4.446,0,0,0,.428.252,4.347,4.347,0,0,0,.444.205l.02-.039c.013.12.027.238.047.357l.032.208a3.484,3.484,0,0,0-.356.171,3.286,3.286,0,0,0-.4.228,3.044,3.044,0,0,0-.673.6,2.631,2.631,0,0,0-.586,1.587,2.938,2.938,0,0,0,.4,1.494,3.63,3.63,0,0,0,.966,1.073,9.931,9.931,0,0,0,2.244,2.6,9.044,9.044,0,0,0,3.138,1.655,11.449,11.449,0,0,0,1.758.393,14.144,14.144,0,0,0,1.8.157,12.589,12.589,0,0,0,3.625-.41,12.915,12.915,0,0,0,3.378-1.437,12.642,12.642,0,0,0,2.835-2.324,10.831,10.831,0,0,0,1.962-3.046,9.08,9.08,0,0,0,.518-1.722c.032-.145.053-.294.072-.445a4.385,4.385,0,0,0,.051-.441l.015-.218.005-.054a.451.451,0,0,0,0-.07m-2.08,3.419a10.089,10.089,0,0,1-1.321,1.853,11.475,11.475,0,0,1-2.574,2.121,11.818,11.818,0,0,1-3.086,1.322,11.369,11.369,0,0,1-1.644.325c-.277.039-.557.054-.831.072-.308.015-.562.018-.85.016a11.783,11.783,0,0,1-3.293-.484,8.209,8.209,0,0,1-2.844-1.484,6.768,6.768,0,0,1-1.209-1.239c.165.075.336.145.512.216s.382.141.576.207a11.049,11.049,0,0,0,1.179.284c.19.032.375.062.549.082s.344.028.5.036c.308.014.563.015.741.011l.139-.005.142-.005-.275-.04c-.172-.026-.42-.066-.713-.126s-.629-.148-.982-.261a10.857,10.857,0,0,1-1.068-.425c-.175-.086-.352-.166-.518-.259s-.332-.18-.486-.277c-.31-.183-.591-.375-.821-.541s-.423-.309-.558-.418l-.065-.051a2.615,2.615,0,0,1-.5-.641,2.035,2.035,0,0,1-.254-1.032,1.587,1.587,0,0,1,.378-.97,1.789,1.789,0,0,1,.27-.246,2.365,2.365,0,0,1,.4-.191l.049.317a.175.175,0,0,0,.046.1l.062.068a4.758,4.758,0,0,0,.51.46,6.711,6.711,0,0,0,.565.386,7.866,7.866,0,0,0,1.208.6,14.4,14.4,0,0,0,2.567.724,20.711,20.711,0,0,0,4.382.286c.313-.013.626-.031.938-.059a21,21,0,0,0,3.773-.668c.494-.138.984-.3,1.465-.481a14.527,14.527,0,0,0,2.43-1.171,12.858,12.858,0,0,0,1.682-1.229c0,.015-.005.032-.008.047a2.406,2.406,0,0,1-.112.388,7.342,7.342,0,0,1-.307.757c-.107.248-.21.494-.307.744a8.806,8.806,0,0,1-.435.887M72.7,49.637a1.456,1.456,0,0,1-.314-.2,1.243,1.243,0,0,1-.24-.252,1.348,1.348,0,0,1-.167-.281,1.332,1.332,0,0,1-.1-.3,1.461,1.461,0,0,1-.021-.32,2.2,2.2,0,0,1,.05-.336,2.115,2.115,0,0,1,.115-.343,2.346,2.346,0,0,1,.172-.337,3.692,3.692,0,0,1,.476-.637,4.1,4.1,0,0,1,1.285-.95.794.794,0,0,0,.259-.191.762.762,0,0,0,.141-.21l.034-.079a7.664,7.664,0,0,1,.712-1.329,6.082,6.082,0,0,1,1.043-1.152,8.447,8.447,0,0,1,2.82-1.585,11.531,11.531,0,0,1,6.589-.212,10.23,10.23,0,0,1,2.992,1.343,9.226,9.226,0,0,1,2.335,2.227,9.955,9.955,0,0,1,1.434,2.886,13.15,13.15,0,0,1,.555,3.12,11.2,11.2,0,0,0-2.011-1.587,15.68,15.68,0,0,0-2.907-1.386,22.121,22.121,0,0,0-3.117-.882,24.433,24.433,0,0,0-3.231-.452,18.6,18.6,0,0,0-3.3.031,10.876,10.876,0,0,0-3.265.8,4.824,4.824,0,0,0-1.462.947,2.46,2.46,0,0,0-.765,1.582,1.16,1.16,0,0,0,0,.133c-.038-.015-.075-.03-.113-.048m.881.088a1.157,1.157,0,0,1,.009-.152,1.6,1.6,0,0,1,.57-1.045,4.114,4.114,0,0,1,1.218-.7,10.627,10.627,0,0,1,2.988-.663,22.835,22.835,0,0,1,9.27,1.1,16.967,16.967,0,0,1,2.81,1.25c.086.049.168.1.253.151.117.07.236.138.352.211.17.108.334.223.5.339l.063.044a9.246,9.246,0,0,1,1,.843l.015.014.017.017.006.006a11.624,11.624,0,0,1-1.319.98q-.269.172-.546.33a14.186,14.186,0,0,1-1.727.833c-.187.075-.375.148-.565.216a19.6,19.6,0,0,1-5.036,1.058,21.081,21.081,0,0,1-5.127-.2,13.992,13.992,0,0,1-2.456-.631,6.151,6.151,0,0,1-2.116-1.215c-.015-.254-.025-.51-.051-.756s-.03-.507-.06-.755-.028-.5-.046-.743c-.008-.119-.015-.239-.017-.372l0-.1Z" transform="translate(-19.49 -10.884)" fill="#1d1d1b"></path>
            <path id="Path_2519" data-name="Path 2519" d="M93.743,51.158l0-.109-.014-.439a14.1,14.1,0,0,0-.582-3.449,10.864,10.864,0,0,0-1.532-3.138,10.156,10.156,0,0,0-2.5-2.471,11.059,11.059,0,0,0-3.237-1.52,12.43,12.43,0,0,0-7.224.122,9.638,9.638,0,0,0-3.231,1.761,7.142,7.142,0,0,0-2.093,2.9,5.251,5.251,0,0,0-1.532,1.25,4.591,4.591,0,0,0-.564.834,3.4,3.4,0,0,0-.206.457,3.134,3.134,0,0,0-.137.481,3.005,3.005,0,0,0-.053.5,2.421,2.421,0,0,0,.054.493,1.981,1.981,0,0,0,.16.468,2.018,2.018,0,0,0,.26.42,2.632,2.632,0,0,0,.335.361,3.334,3.334,0,0,0,.388.308,4.446,4.446,0,0,0,.428.252,4.347,4.347,0,0,0,.444.205l.02-.039c.013.12.027.238.047.357l.032.208a3.484,3.484,0,0,0-.356.171,3.286,3.286,0,0,0-.4.228,3.044,3.044,0,0,0-.673.6,2.631,2.631,0,0,0-.586,1.587,2.938,2.938,0,0,0,.4,1.494,3.63,3.63,0,0,0,.966,1.073,9.931,9.931,0,0,0,2.244,2.6,9.044,9.044,0,0,0,3.138,1.655,11.449,11.449,0,0,0,1.758.393,14.144,14.144,0,0,0,1.8.157,12.589,12.589,0,0,0,3.625-.41,12.915,12.915,0,0,0,3.378-1.437,12.642,12.642,0,0,0,2.835-2.324,10.831,10.831,0,0,0,1.962-3.046,9.08,9.08,0,0,0,.518-1.722c.032-.145.053-.294.072-.445a4.385,4.385,0,0,0,.051-.441l.015-.218.005-.054A.451.451,0,0,0,93.743,51.158Zm-2.08,3.419a10.089,10.089,0,0,1-1.321,1.853,11.475,11.475,0,0,1-2.574,2.121,11.818,11.818,0,0,1-3.086,1.322,11.369,11.369,0,0,1-1.644.325c-.277.039-.557.054-.831.072-.308.015-.562.018-.85.016a11.783,11.783,0,0,1-3.293-.484,8.209,8.209,0,0,1-2.844-1.484,6.768,6.768,0,0,1-1.209-1.239c.165.075.336.145.512.216s.382.141.576.207a11.049,11.049,0,0,0,1.179.284c.19.032.375.062.549.082s.344.028.5.036c.308.014.563.015.741.011l.139-.005.142-.005-.275-.04c-.172-.026-.42-.066-.713-.126s-.629-.148-.982-.261a10.857,10.857,0,0,1-1.068-.425c-.175-.086-.352-.166-.518-.259s-.332-.18-.486-.277c-.31-.183-.591-.375-.821-.541s-.423-.309-.558-.418l-.065-.051a2.615,2.615,0,0,1-.5-.641,2.035,2.035,0,0,1-.254-1.032,1.587,1.587,0,0,1,.378-.97,1.789,1.789,0,0,1,.27-.246,2.365,2.365,0,0,1,.4-.191l.049.317a.175.175,0,0,0,.046.1l.062.068a4.758,4.758,0,0,0,.51.46,6.711,6.711,0,0,0,.565.386,7.866,7.866,0,0,0,1.208.6,14.4,14.4,0,0,0,2.567.724,20.711,20.711,0,0,0,4.382.286c.313-.013.626-.031.938-.059a21,21,0,0,0,3.773-.668c.494-.138.984-.3,1.465-.481a14.527,14.527,0,0,0,2.43-1.171,12.858,12.858,0,0,0,1.682-1.229c0,.015-.005.032-.008.047a2.406,2.406,0,0,1-.112.388,7.342,7.342,0,0,1-.307.757c-.107.248-.21.494-.307.744A8.806,8.806,0,0,1,91.664,54.577ZM72.7,49.637a1.456,1.456,0,0,1-.314-.2,1.243,1.243,0,0,1-.24-.252,1.348,1.348,0,0,1-.167-.281,1.332,1.332,0,0,1-.1-.3,1.461,1.461,0,0,1-.021-.32,2.2,2.2,0,0,1,.05-.336,2.115,2.115,0,0,1,.115-.343,2.346,2.346,0,0,1,.172-.337,3.692,3.692,0,0,1,.476-.637,4.1,4.1,0,0,1,1.285-.95.794.794,0,0,0,.259-.191.762.762,0,0,0,.141-.21l.034-.079a7.664,7.664,0,0,1,.712-1.329,6.082,6.082,0,0,1,1.043-1.152,8.447,8.447,0,0,1,2.82-1.585,11.531,11.531,0,0,1,6.589-.212,10.23,10.23,0,0,1,2.992,1.343,9.226,9.226,0,0,1,2.335,2.227,9.955,9.955,0,0,1,1.434,2.886,13.15,13.15,0,0,1,.555,3.12,11.2,11.2,0,0,0-2.011-1.587,15.68,15.68,0,0,0-2.907-1.386,22.121,22.121,0,0,0-3.117-.882,24.433,24.433,0,0,0-3.231-.452,18.6,18.6,0,0,0-3.3.031,10.876,10.876,0,0,0-3.265.8,4.824,4.824,0,0,0-1.462.947,2.46,2.46,0,0,0-.765,1.582,1.16,1.16,0,0,0,0,.133C72.773,49.669,72.736,49.654,72.7,49.637Zm.881.088a1.157,1.157,0,0,1,.009-.152,1.6,1.6,0,0,1,.57-1.045,4.114,4.114,0,0,1,1.218-.7,10.627,10.627,0,0,1,2.988-.663,22.835,22.835,0,0,1,9.27,1.1,16.967,16.967,0,0,1,2.81,1.25c.086.049.168.1.253.151.117.07.236.138.352.211.17.108.334.223.5.339l.063.044a9.246,9.246,0,0,1,1,.843l.015.014.017.017.006.006a11.624,11.624,0,0,1-1.319.98q-.269.172-.546.33a14.186,14.186,0,0,1-1.727.833c-.187.075-.375.148-.565.216a19.6,19.6,0,0,1-5.036,1.058,21.081,21.081,0,0,1-5.127-.2,13.992,13.992,0,0,1-2.456-.631,6.151,6.151,0,0,1-2.116-1.215c-.015-.254-.025-.51-.051-.756s-.03-.507-.06-.755-.028-.5-.046-.743c-.008-.119-.015-.239-.017-.372l0-.1Z" transform="translate(-19.49 -10.884)" fill="none" stroke="#1d1d1b" stroke-miterlimit="10" stroke-width="0.475"></path>
            <path id="Path_2520" data-name="Path 2520" d="M22.83,35.047a31.18,31.18,0,0,0-4.6,5.986c-.491,1.226-3.594,9.076-5.63,10.922-1.33,1.207-2.5,2.018-3.174,2.575.012-.034.023-.068.035-.1.174-.492.347-1,.544-1.5l.6-1.5.607-1.509.6-1.518.58-1.53.278-.773.266-.778.006-.023a.1.1,0,0,0-.18-.089h0c-.037.042-.077.08-.113.122a11.468,11.468,0,0,0,.653-1.166s-.161-3.515-1.453-3.077c-1.062.36-3.086,5.574-4.847,8.241a13.928,13.928,0,0,1-2.2.755,6.651,6.651,0,0,1-1.511.213,1.522,1.522,0,0,1-.638-.11c-.073-.044-.076-.065-.078-.085v-.03l.013-.048,0-.016v0l0-.011.017-.043.032-.087a14.532,14.532,0,0,1,.649-1.413c.239-.47.486-.939.738-1.405.5-.934,1.021-1.861,1.541-2.788l1.567-2.782.781-1.4c.259-.468.518-.946.764-1.414v0c.337-.641.678-1.279,1.05-1.89.188-.3.38-.6.581-.894s.407-.572.623-.84a4.777,4.777,0,0,1,.69-.686,1.387,1.387,0,0,1,.174-.12l.083-.049.075-.03.062-.018.025-.009-.015,0-.021-.011.059.009.033.007h.015l.011,0-.01,0h0l-.022,0s.007,0,0,0l.075.017a9.283,9.283,0,0,0,1.159.17c.378.036.751.06,1.122.078,1.484.071,2.95.081,4.408.141.729.029,1.454.069,2.166.144.357.036.71.084,1.05.151.17.033.335.073.493.121.079.023.134.046.206.07Z" transform="translate(-0.708 -9.389)" fill="#fff"></path>
            <path id="Path_2521" data-name="Path 2521" d="M9.42,49.343q-.365.178-.739.34c1.761-2.667,3.784-7.882,4.846-8.241,1.293-.439,1.455,3.076,1.455,3.076a11.709,11.709,0,0,1-.655,1.166A16.288,16.288,0,0,1,9.42,49.343M27.474,40.7l-.013-.1-.01-.1-.021-.125c-.024-.166-.073-.338-.112-.507-.1-.339-.207-.679-.34-1.01a11.4,11.4,0,0,0-.951-1.906,4.5,4.5,0,0,0-1.355-1.464l-.048-.03-.005,0-.006,0-.031-.014L24.51,35.4a31.209,31.209,0,0,0-4.6,5.986c-.489,1.226-3.594,9.076-5.629,10.922-1.331,1.207-2.5,2.018-3.173,2.575-.072.212-.14.424-.2.631a4.735,4.735,0,0,0-.141.689,1.485,1.485,0,0,0-.009.17c.03,0,.059,0,.092,0a3.377,3.377,0,0,0,.654-.133,6.505,6.505,0,0,0,.7-.247,15.3,15.3,0,0,0,1.392-.663,15.634,15.634,0,0,0,1.337-.815c.434-.293.864-.6,1.274-.926s.8-.678,1.188-1.038a14.808,14.808,0,0,0,1.086-1.15,12.991,12.991,0,0,0,.955-1.269,11.546,11.546,0,0,0,.786-1.4h0l.041-.053.006,0c.305-.2.618-.388.918-.6s.6-.415.879-.649l.428-.339c.141-.115.275-.238.414-.357.278-.236.541-.489.8-.739s.511-.518.764-.78.491-.536.72-.818a18.784,18.784,0,0,0,1.308-1.737c.2-.3.391-.607.565-.919.091-.154.164-.315.242-.47l.1-.233.03-.1.014-.043v-.009l0-.034Z" transform="translate(-2.389 -9.741)" fill="#ece8db"></path>
            <path id="Path_2522" data-name="Path 2522" d="M11.42,33.461l-.011,0h0Zm15.6,6.359v.021l0,.022L27.01,40v.028l0,.039,0,.03v.02c-.007.043-.015.083-.025.12h0l-.007.038-.011.036-.033.117c-.025.085-.053.17-.083.254l-.008.022-.009.022-.138.318,0,.008,0,.009c-.034.073-.069.14-.1.206l-.051.1c-.062.121-.115.219-.167.306-.2.354-.415.694-.651,1.039a20.782,20.782,0,0,1-1.45,1.89,21.265,21.265,0,0,1-1.654,1.724l-.056.051c-.267.247-.544.5-.836.738l-.145.122c-.105.089-.21.178-.325.266l-.453.341c-.221.172-.448.323-.668.469-.106.07-.212.141-.316.213l-.008.006-.009.006c-.165.107-.332.209-.5.307a10.657,10.657,0,0,1-.544,1.163,13.318,13.318,0,0,1-1,1.571,14.24,14.24,0,0,1-1.187,1.395,17.018,17.018,0,0,1-1.312,1.231,16.8,16.8,0,0,1-1.419,1.089,17.68,17.68,0,0,1-1.524.931A14.007,14.007,0,0,1,10.654,57a9.2,9.2,0,0,1-.918.307,5.676,5.676,0,0,1-1.092.2c-.08.005-.162.009-.248.009a2.939,2.939,0,0,1-.512-.044l-.014,0-.014,0a2.253,2.253,0,0,1-.534-.174,1.831,1.831,0,0,1-.334-.2,1.854,1.854,0,0,1-.231-.209c-.031-.033-.075-.085-.1-.109l-.015-.02-.014-.02-.016-.024a2.106,2.106,0,0,1-.373-1.094v-.03a3.357,3.357,0,0,1,.041-.688,6.566,6.566,0,0,1,.249-1c.086-.268.185-.539.31-.85.185-.466.4-.95.687-1.571l.02-.043c.22-.461.446-.938.686-1.4-.1.045-.2.09-.3.136a17.264,17.264,0,0,1-1.663.621c-.606.2-1.168.351-1.722.475a8.774,8.774,0,0,1-1.916.241H2.585a4.4,4.4,0,0,1-.64-.054,2.792,2.792,0,0,1-.865-.28l-.009-.005-.009-.005a2.1,2.1,0,0,1-.6-.489,1.937,1.937,0,0,1-.435-.963,2,2,0,0,1-.012-.477,2.051,2.051,0,0,1,.038-.243l0-.012,0-.012.012-.045L.07,48.9l.668.165h0l-.66-.194L.1,48.783h0l.009-.026.005-.012.022-.06.044-.115a13.752,13.752,0,0,1,.694-1.482l.067-.129c.265-.506.532-.99.784-1.442l1.584-2.791L4.9,39.956l.786-1.384c.265-.469.512-.919.756-1.375h0c.355-.687.723-1.354,1.094-1.985.233-.391.431-.705.617-.984.21-.32.449-.652.711-.984l.006-.008.007-.008a6.522,6.522,0,0,1,.955-.964l.014-.012.014-.011.065-.048a2.267,2.267,0,0,1,.272-.183l.146-.086.035-.02.036-.017.171-.074a1.77,1.77,0,0,1,.329-.106l.107-.024.022-.006.022,0a2.018,2.018,0,0,1,.249-.021h.042c.062,0,.125,0,.177.007a.763.763,0,0,1,.122.016l.033,0,.019,0,.019,0,.017,0,.02,0h0l.042.009.057.012a8.249,8.249,0,0,0,.934.119c.305.025.637.043,1.044.059.777.029,1.581.04,2.358.051.665.009,1.353.019,2.037.039.715.022,1.487.053,2.295.13.464.046.854.1,1.23.174.247.049.47.1.666.164.122.035.262.089.386.137l.041.016.02.008.019.009.128.059.032.015.019.009,0,0,.009,0,.008,0,.046.023.033.018.023.014.088.055.307.2.012.007.012.008c.1.07.176.137.245.2l.061.052a3.941,3.941,0,0,1,.425.409l.1.108.007.007.007.007c.121.133.224.265.323.391l.1.129.017.02.014.021c.036.054.074.107.111.16.084.12.169.241.246.364a13.169,13.169,0,0,1,1.121,2.224,12.112,12.112,0,0,1,.41,1.2l0,.016,0,.017.035.142c.039.158.084.337.113.531l.028.166,0,.012v.012c.012.088.019.2.025.3s.007.2.006.291M9.984,48.2l-.086.162.089-.165,0,0h0l-.1.075Zm1.977-2.781-.278.773-.581,1.53-.6,1.518L9.9,50.752l-.6,1.5c-.2.5-.37,1-.544,1.5l-.034.1c-.072.212-.139.424-.2.631a4.633,4.633,0,0,0-.141.689,1.688,1.688,0,0,0-.01.171c.03,0,.059,0,.093,0a3.387,3.387,0,0,0,.654-.133,6.719,6.719,0,0,0,.7-.246c.466-.195.934-.417,1.391-.664a15.647,15.647,0,0,0,1.337-.815c.434-.293.863-.6,1.274-.926s.8-.678,1.188-1.038a14.8,14.8,0,0,0,1.085-1.15,13,13,0,0,0,.956-1.269,11.645,11.645,0,0,0,.786-1.4h0l.042-.053.006,0c.3-.2.618-.387.917-.6s.6-.415.879-.649l.429-.34c.141-.115.275-.238.413-.357.278-.236.541-.488.8-.739s.511-.519.764-.78.491-.536.72-.819a18.793,18.793,0,0,0,1.308-1.737c.2-.3.391-.607.565-.919.091-.154.165-.315.243-.47l.1-.233.03-.1.014-.043v-.009l0-.035.011-.137-.012-.1-.01-.1-.022-.125c-.024-.166-.073-.338-.112-.507-.1-.339-.207-.679-.339-1.01a11.349,11.349,0,0,0-.952-1.906,4.478,4.478,0,0,0-1.355-1.463l-.048-.031-.005,0-.006,0-.031-.014-.071-.033-.054-.025c-.071-.023-.126-.046-.205-.07-.159-.048-.323-.087-.494-.121-.34-.067-.692-.115-1.049-.15-.712-.076-1.439-.116-2.166-.144-1.458-.061-2.924-.071-4.408-.142-.371-.017-.744-.042-1.122-.077a9.431,9.431,0,0,1-1.16-.17l-.075-.017s0,0,0,0l.021,0h-.015l-.033-.006-.059-.009.02.011.016,0-.025.009-.062.018-.074.03-.083.049a1.468,1.468,0,0,0-.174.12,4.9,4.9,0,0,0-.691.687c-.216.267-.425.545-.623.839s-.393.591-.581.894c-.373.612-.715,1.25-1.05,1.89l0,0c-.244.468-.5.947-.763,1.414L6.43,40.8,4.864,43.582c-.52.927-1.039,1.855-1.542,2.788-.251.467-.5.935-.738,1.405a14.789,14.789,0,0,0-.649,1.413l-.032.087-.017.043,0,.011v0l0,.015-.013.048v.03c0,.02.006.041.078.085a1.522,1.522,0,0,0,.638.11,6.577,6.577,0,0,0,1.512-.213,13.9,13.9,0,0,0,2.2-.755q.373-.161.739-.34a16.285,16.285,0,0,0,4.907-3.658c.038-.041.077-.08.114-.122h0a.1.1,0,0,1,.18.089l-.007.024Zm6.895,2.61v0ZM11.326,32.344c.053,0,.107,0,.159.005-.043,0-.086-.005-.13-.005ZM.755,49s0,0,0,.007l0-.01ZM2.9,50.807c-.1,0-.2.011-.3.01h.034c.091,0,.178-.007.265-.01M8.6,56.82c-.079.006-.162.007-.249.006H8.4c.07,0,.138,0,.2-.007m10.137-8.442h0c0,.009-.006.019-.009.028,0-.009.008-.019.012-.029m7.573-8.3c-.005.032-.008.046-.009.051v0l.009-.053" transform="translate(0 -8.711)" fill="#1d1d1b"></path>
          </g>
        </g>
      </g>
    </g>
  </g>
</svg>
